<?xml version="1.0" encoding="utf-8"?>
<!-- Generator: Adobe Illustrator 16.0.0, SVG Export Plug-In . SVG Version: 6.00 Build 0)  -->
<!DOCTYPE svg PUBLIC "-//W3C//DTD SVG 1.1//EN" "http://www.w3.org/Graphics/SVG/1.1/DTD/svg11.dtd">
<svg version="1.1" xmlns="http://www.w3.org/2000/svg" xmlns:xlink="http://www.w3.org/1999/xlink" x="0px" y="0px" width="25px"
	 height="24px" viewBox="0 0 25 24" enable-background="new 0 0 25 24" xml:space="preserve">
<g id="Layer_1" display="none">
	<g id="Layer_1_2_">
		<g id="Layer_1_1_" display="inline">
			<g id="Shape_52">
				<g>
					<path fill="#FFFFFF" d="M12.5,0.5C6,0.5,0.7,5.6,0.7,12c0,6.4,5.3,11.5,11.8,11.5S24.3,18.3,24.3,12C24.3,5.6,19,0.5,12.5,0.5z
						 M13.3,18.9c-0.4,0.3-0.8,0.5-1.4,0.5l0,0c-0.5,0-1-0.2-1.3-0.5C10.2,18.6,10.1,18.1,10.1,17.6s0.2-1,0.5-1.3
						c0.3-0.3,0.8-0.5,1.3-0.5s1,0.101,1.4,0.5c0.4,0.3,0.5,0.8,0.5,1.3S13.6,18.6,13.3,18.9z M16.4,10.1c-0.2,0.4-0.4,0.8-0.7,1.2
						c-0.3,0.3-0.601,0.6-0.9,0.8c-0.3,0.2-0.6,0.4-0.8,0.7c-0.2,0.2-0.4,0.5-0.6,0.8C13.3,13.9,13.2,14.3,13.2,14.7V15h-2.8v-0.3
						c0-0.2,0-0.4,0-0.601c0-0.399,0-0.801,0.1-1.101c0.1-0.5,0.3-0.9,0.6-1.3c0.2-0.4,0.5-0.7,0.8-0.9c0.3-0.2,0.6-0.5,0.8-0.7
						c0.2-0.2,0.399-0.4,0.6-0.6c0.101-0.2,0.2-0.4,0.2-0.7c0-0.4-0.1-0.6-0.3-0.8c-0.101-0.2-0.5-0.3-1.1-0.3c-0.2,0-0.4,0-0.6,0.1
						c-0.2,0-0.4,0.1-0.6,0.2c-0.2,0.1-0.4,0.2-0.6,0.3c-0.2,0.1-0.4,0.2-0.5,0.3H9.4L8.2,6.3l0.2-0.2c0.5-0.3,1.1-0.6,1.8-0.8
						C10.9,5.1,11.7,5,12.6,5c1.3,0,2.3,0.3,3,0.9C16.4,6.5,16.7,7.4,16.7,8.4C16.7,9,16.6,9.6,16.4,10.1z"/>
				</g>
			</g>
		</g>
		<g id="Layer_2" display="inline">
			<g>
				<g>
					<g>
						<path fill="#FFFFFF" d="M23.5,7.9L21.7,2c0-0.1-0.101-0.2-0.2-0.2h-2.4H5.8H3.4C3.3,1.9,3.2,1.9,3.1,2L1.3,7.9H23.5z"/>
						<path fill="#FFFFFF" d="M23.7,8.5H1.2L1.1,8.9V9C1.1,9.2,1,9.3,1,9.5c0,1.2,1.1,2.2,2.4,2.2c1,0,1.9-0.6,2.2-1.4
							C6.1,11.2,7,11.8,8,11.8s1.9-0.6,2.2-1.4c0.4,0.8,1.2,1.4,2.2,1.4c1,0,1.9-0.6,2.2-1.4c0.4,0.8,1.2,1.4,2.2,1.4
							s1.9-0.6,2.2-1.4c0.4,0.8,1.2,1.4,2.2,1.4c1.3,0,2.399-1,2.399-2.2c0-0.2,0-0.5-0.101-0.7L23.7,8.5z"/>
					</g>
					
						<line fill="none" stroke="#FFFFFF" stroke-width="1.8624" stroke-linecap="round" stroke-linejoin="round" stroke-miterlimit="10" x1="4.1" y1="12.7" x2="4.1" y2="21.9"/>
					
						<line fill="none" stroke="#FFFFFF" stroke-width="1.8624" stroke-linecap="round" stroke-linejoin="round" stroke-miterlimit="10" x1="20.9" y1="12.7" x2="20.9" y2="21.9"/>
				</g>
			</g>
			<rect x="4.1" y="16.8" fill="#FFFFFF" width="16.8" height="5.3"/>
		</g>
		<g id="Layer_3" display="inline">
			<path fill="#FFFFFF" d="M6.5,8.1c0.5,0,0.9,0,1.4,0c0.2,0,0.3,0.2,0.3,0.3c0,0.7,0.4,1.3,1.1,1.6c0.7,0.3,1.4,0.1,1.9-0.4
				c0.1-0.1,0.3-0.1,0.4,0c0.4,0.3,0.7,0.6,1,1c0.1,0.1,0.1,0.3,0,0.5c-0.5,0.5-0.6,1.2-0.4,1.9c0.3,0.7,0.899,1.1,1.6,1.1
				c0.2,0,0.3,0.102,0.3,0.301c0.102,0.601,0,1.199,0,1.699C13.3,16,12.5,16.4,12.2,17.2c-0.3,0.7-0.1,1.399,0.4,1.899
				c0.1,0.101,0.1,0.301,0,0.399c-0.3,0.399-0.6,0.7-1,1c-0.1,0.101-0.3,0.101-0.5,0c-0.5-0.5-1.2-0.601-1.9-0.399
				C8.5,20.4,8.1,21,8.1,21.7C8.1,21.9,8,22,7.8,22c-0.5,0-0.9,0-1.4,0c-0.2,0-0.3-0.2-0.3-0.3C6.1,21,5.7,20.4,5,20.1
				c-0.7-0.3-1.4-0.1-1.9,0.4c-0.1,0.1-0.3,0.1-0.4,0c-0.4-0.3-0.7-0.6-1-1c-0.1-0.1-0.1-0.3,0-0.5c0.5-0.5,0.6-1.2,0.4-1.9
				C1.8,16.4,1.2,16,0.5,16c-0.2,0-0.3-0.1-0.3-0.3c0-0.5,0-0.9,0-1.4c0-0.2,0.2-0.3,0.3-0.3c0.7,0,1.3-0.4,1.6-1.1
				c0.3-0.7,0.1-1.4-0.4-1.9c-0.1-0.1-0.1-0.3,0-0.5c0.3-0.4,0.6-0.7,1-1c0.1-0.1,0.3-0.1,0.5,0c0.5,0.5,1.2,0.6,1.9,0.4
				C5.8,9.6,6.2,9,6.2,8.3C6.2,8.3,6.4,8.1,6.5,8.1L6.5,8.1z M6.6,13.7C5.8,14,5.4,15,5.7,15.8C6,16.6,7,17,7.8,16.7
				C8.6,16.4,9,15.4,8.7,14.6C8.4,13.7,7.4,13.3,6.6,13.7z"/>
			<path fill="#FFFFFF" d="M18.5,1c0.4,0,0.8,0,1.1,0c0.102,0,0.2,0.1,0.2,0.3c0,0.6,0.3,1.1,0.9,1.3c0.5,0.2,1.2,0.1,1.6-0.3
				c0.101-0.1,0.3-0.1,0.4,0c0.3,0.2,0.6,0.5,0.8,0.8c0.1,0.1,0.1,0.3,0,0.4c-0.4,0.4-0.5,1-0.3,1.6C23.4,5.6,24,6,24.5,6
				c0.1,0,0.3,0.1,0.3,0.2c0,0.5,0,0.9,0,1.4c-0.6-0.1-1.3,0.3-1.5,0.9C23,9,23.1,9.6,23.5,10c0.1,0.1,0.1,0.3,0,0.4
				c-0.2,0.3-0.5,0.6-0.8,0.8c-0.101,0.1-0.3,0.1-0.4,0c-0.399-0.4-1-0.5-1.6-0.3c-0.5,0.2-0.9,0.8-0.9,1.3c0,0.1-0.1,0.3-0.2,0.3
				c-0.398,0-0.8,0-1.1,0c-0.1,0-0.2-0.1-0.3-0.3c0-0.6-0.3-1.1-0.9-1.3c-0.6-0.2-1.2-0.1-1.6,0.3c-0.101,0.1-0.3,0.1-0.4,0
				c-0.3-0.2-0.6-0.5-0.8-0.8c-0.1-0.1-0.1-0.3,0-0.4C15,9.6,15.2,9,15,8.4c-0.2-0.5-0.8-0.9-1.3-0.9c-0.101,0-0.3-0.1-0.3-0.3
				c0-0.4,0-0.8,0-1.1c0-0.1,0.1-0.2,0.3-0.2c0.6,0,1.1-0.3,1.3-0.9c0.2-0.5,0.1-1.2-0.3-1.6C14.6,3.3,14.6,3.1,14.7,3
				c0.2-0.3,0.5-0.6,0.8-0.8c0.1-0.1,0.3-0.1,0.4,0c0.398,0.4,1,0.5,1.6,0.3c0.5-0.2,0.9-0.8,0.9-1.3C18.3,1.2,18.4,1,18.5,1L18.5,1
				z M18.6,5.5c-0.699,0.3-1,1-0.699,1.7c0.301,0.7,1,1,1.699,0.7c0.7-0.3,1-1,0.7-1.7C20,5.6,19.2,5.3,18.6,5.5z"/>
		</g>
		<g id="Layer_4" display="inline">
			
				<polygon fill="#FFFFFF" stroke="#FFFFFF" stroke-width="1.7" stroke-linecap="round" stroke-linejoin="round" stroke-miterlimit="10" points="
				2.1,8.9 2.1,15.2 7.9,15.2 12.5,20 12.5,3.8 7.9,8.9 			"/>
			<g>
				
					<path fill="none" stroke="#FFFFFF" stroke-width="1.7" stroke-linecap="round" stroke-linejoin="round" stroke-miterlimit="10" d="
					M16.9,7c1,1.3,1.6,3,1.6,4.8c0,1.9-0.6,3.601-1.6,4.9"/>
				
					<path fill="none" stroke="#FFFFFF" stroke-width="1.7" stroke-linecap="round" stroke-linejoin="round" stroke-miterlimit="10" d="
					M20.4,4.3c1.5,2.1,2.5,4.7,2.5,7.6s-0.9,5.6-2.5,7.7"/>
			</g>
		</g>
	</g>
	<g id="Layer_2_1_" display="inline">
		<path fill="#FFFFFF" d="M21.449,4.669H3.552c-1.331,0-1.924,0.594-1.924,1.924v10.2c0,1.329,0.593,1.925,1.924,1.925h17.897
			c0.421,0,0.762-0.065,1.039-0.188l-7.7-6.335c-0.649,0.496-1.299,0.988-1.95,1.48l-0.307,0.23l-0.306-0.23
			c-0.596-0.445-1.188-0.896-1.781-1.346l-8.003,5.843L2.15,17.793l0.092-0.074l7.39-6.006c-1.013-0.771-1.799-1.378-2.534-1.956
			L4.562,7.765C4.313,7.561,4.065,7.362,3.819,7.163L3.694,7.062C3.156,6.628,2.6,6.181,2.054,5.721L1.967,5.648l0.281-0.377
			l0.096,0.063c0.571,0.379,1.142,0.777,1.694,1.16L4.089,6.53C4.395,6.744,4.7,6.955,5.006,7.165L7.635,9.04
			c1.7,1.216,3.395,2.476,4.896,3.592c1.791-1.339,3.293-2.457,4.865-3.583l2.609-1.869c0.307-0.212,0.608-0.422,0.908-0.633
			l0.046-0.032c0.552-0.385,1.124-0.784,1.694-1.165l0.098-0.063l0.281,0.376l-0.088,0.074c-0.521,0.441-1.062,0.877-1.582,1.299
			l-0.182,0.146c-0.242,0.196-0.484,0.393-0.726,0.591l-2.522,1.991c-0.705,0.554-1.47,1.147-2.336,1.812l7.295,6.662
			c0.315-0.313,0.479-0.779,0.479-1.444v-10.2C23.372,5.264,22.777,4.669,21.449,4.669z"/>
	</g>
</g>
<g id="Layer_2_2_">
	<g>
		<g>
			<g>
				<g>
					<path fill="#FFFFFF" d="M21.382,9.238c-0.002-0.101-0.045-0.199-0.126-0.267l-1.215-1.074l0.708-1.455
						c0.049-0.093,0.057-0.2,0.013-0.295c-0.034-0.096-0.111-0.171-0.208-0.208L19.048,5.34l0.166-1.611
						c0.004-0.101-0.024-0.204-0.095-0.28c-0.068-0.074-0.186-0.132-0.266-0.126l-1.619-0.041l-0.39-1.571
						c-0.027-0.097-0.094-0.183-0.183-0.234c-0.095-0.049-0.192-0.055-0.293-0.026l-1.542,0.515l-0.906-1.341
						c-0.055-0.089-0.146-0.144-0.252-0.16c-0.099-0.01-0.203,0.014-0.285,0.076L12.117,1.55L10.807,0.6
						c-0.082-0.059-0.181-0.082-0.287-0.062c-0.103,0.019-0.186,0.079-0.244,0.167L9.43,2.085L7.872,1.64
						C7.784,1.615,7.676,1.626,7.585,1.68C7.492,1.734,7.434,1.823,7.413,1.922L7.092,3.508l-1.62,0.119
						c-0.1,0.006-0.196,0.058-0.261,0.137C5.147,3.845,5.121,3.948,5.135,4.05l0.239,1.599l-1.48,0.664
						C3.799,6.354,3.73,6.434,3.694,6.529C3.666,6.626,3.672,6.735,3.721,6.823l0.772,1.424L3.332,9.377
						C3.259,9.446,3.219,9.544,3.221,9.651c0.002,0.1,0.047,0.195,0.122,0.264l1.212,1.073l-0.711,1.458
						c-0.045,0.095-0.047,0.201-0.013,0.298c0.04,0.094,0.114,0.17,0.21,0.211l1.51,0.588l-0.168,1.611
						c-0.009,0.102,0.026,0.205,0.093,0.283c0.065,0.074,0.16,0.129,0.264,0.123l1.622,0.045l0.396,1.57
						c0.023,0.096,0.091,0.182,0.181,0.234c0.09,0.049,0.194,0.053,0.293,0.025l1.536-0.514l0.911,1.34
						c0.058,0.088,0.147,0.143,0.248,0.156c0.013,0.004,0.027,0.004,0.041,0.006c0.086,0.004,0.173-0.023,0.241-0.08l1.271-1.008
						l1.309,0.947c0.086,0.061,0.189,0.086,0.291,0.066c0.101-0.025,0.187-0.084,0.242-0.17l0.845-1.381l1.56,0.447
						c0.097,0.023,0.202,0.008,0.289-0.041c0.087-0.057,0.148-0.143,0.173-0.238l0.325-1.592l1.616-0.117
						c0.1-0.006,0.193-0.053,0.256-0.133c0.063-0.082,0.091-0.184,0.078-0.287l-0.239-1.602l1.48-0.664
						c0.095-0.043,0.165-0.121,0.2-0.217c0.035-0.095,0.022-0.203-0.027-0.291l-0.771-1.426l1.16-1.125
						C21.346,9.441,21.385,9.34,21.382,9.238z M12.303,15.973c-3.604,0-6.533-2.93-6.533-6.53c0-3.603,2.93-6.531,6.533-6.531
						s6.533,2.929,6.533,6.531C18.836,13.043,15.906,15.973,12.303,15.973z"/>
				</g>
			</g>
			<path fill="#FFFFFF" d="M10.183,19.141l-0.911-1.34l-1.535,0.518c-0.097,0.025-0.204,0.02-0.293-0.029
				c-0.09-0.051-0.156-0.135-0.179-0.232l-0.396-1.572l-1.624-0.043c-0.062,0.002-0.105-0.043-0.157-0.074l-2.186,4.219
				c-0.049,0.098-0.042,0.209,0.02,0.293c0.026,0.037,0.061,0.066,0.101,0.088c0.049,0.023,0.11,0.039,0.166,0.027l3.271-0.43
				l1.343,2.816c0.028,0.051,0.074,0.096,0.129,0.129c0.035,0.016,0.077,0.029,0.121,0.029c0.107,0.002,0.205-0.061,0.254-0.15
				l2.121-4.092C10.324,19.279,10.239,19.225,10.183,19.141z"/>
			<path fill="#FFFFFF" d="M14.816,19.074l0.912-1.34l1.536,0.512c0.097,0.031,0.202,0.025,0.291-0.023
				c0.09-0.051,0.158-0.137,0.182-0.234l0.396-1.572l1.622-0.043c0.063,0.004,0.106-0.043,0.159-0.072l2.183,4.219
				c0.05,0.094,0.043,0.207-0.02,0.293c-0.025,0.037-0.061,0.066-0.102,0.086c-0.046,0.027-0.104,0.037-0.163,0.031l-3.271-0.434
				l-1.344,2.814c-0.028,0.055-0.071,0.102-0.125,0.131c-0.036,0.02-0.081,0.031-0.125,0.031c-0.107,0-0.205-0.059-0.252-0.152
				l-2.12-4.094C14.676,19.211,14.763,19.16,14.816,19.074z"/>
		</g>
		<path fill="#FFFFFF" d="M12.303,3.689c-3.173,0-5.755,2.581-5.755,5.754c0,3.17,2.582,5.752,5.755,5.752s5.755-2.582,5.755-5.752
			C18.058,6.27,15.476,3.689,12.303,3.689z M15.531,8.935l-1.543,1.234l0.474,1.917c0.029,0.121-0.016,0.249-0.119,0.32
			c-0.102,0.07-0.233,0.071-0.338,0.007l-1.652-1.086l-1.675,1.042c-0.106,0.067-0.244,0.06-0.344-0.015
			c-0.099-0.075-0.143-0.201-0.112-0.322l0.525-1.905L9.234,8.855C9.14,8.775,9.104,8.644,9.143,8.527
			c0.041-0.119,0.148-0.2,0.273-0.206l1.974-0.092L12.132,6.4c0.049-0.115,0.161-0.191,0.285-0.189
			c0.124,0.001,0.237,0.08,0.279,0.195l0.696,1.849l1.972,0.143c0.124,0.008,0.231,0.092,0.268,0.211S15.629,8.857,15.531,8.935z"/>
	</g>
</g>
</svg>
