<?xml version="1.0" encoding="utf-8"?>
<!-- Generator: Adobe Illustrator 16.0.0, SVG Export Plug-In . SVG Version: 6.00 Build 0)  -->
<!DOCTYPE svg PUBLIC "-//W3C//DTD SVG 1.1//EN" "http://www.w3.org/Graphics/SVG/1.1/DTD/svg11.dtd">
<svg version="1.1" xmlns="http://www.w3.org/2000/svg" xmlns:xlink="http://www.w3.org/1999/xlink" x="0px" y="0px" width="30px"
	 height="30px" viewBox="0 0 30 30" enable-background="new 0 0 30 30" xml:space="preserve">
<g id="Layer_1" display="none">
	<path display="inline" d="M20.053,19.151c0,0-2.037-0.626-3.917-0.861c-0.039,0-0.039-1.528-0.078-1.528
		c1.136-0.861,1.685-1.252,2.663-3.603c0-0.039,0.039-0.078,0.039-0.117c0.078,0,0.156,0.039,0.234,0.039
		c0.118,0,0.471-0.039,0.588-0.079c0.471-0.274,0.744-1.762,0.744-2.506c0-0.901-0.588-0.979-0.744-0.979c-0.039,0-0.039,0-0.039,0
		s0,0-0.039,0c0-0.079,0-0.157,0-0.274c0-0.979,0.51-2.663,0.234-3.564c-0.391-1.41-1.252-1.723-1.684-2.702
		c-0.822-1.723-2.428-1.684-3.016-1.684c-0.313,0-1.292-1.371-2.741-1.214c-1.175,0.118-1.684,2.115-3.055,2.82
		c-1.801,0.94-1.566,1.41-1.997,2.781C6.971,6.58,7.48,8.225,7.48,9.243c0,0.079,0,0.157,0,0.274c-0.039,0-0.039,0-0.039,0
		s0,0-0.04,0c-0.117,0-0.626,0.078-0.626,0.979c0,0.744,0.274,2.232,0.744,2.506c0.118,0.079,0.353,0.079,0.47,0.079
		c0.078,0,0.156,0,0.274-0.039c0,0.039,0.039,0.078,0.039,0.117c0.979,2.429,1.488,2.78,2.624,3.643
		c-0.039,0-0.078,1.527-0.117,1.527c-3.682,0.509-4.465,1.175-6.228,1.919c-1.214,0.47-1.801,3.329-1.801,3.329h14.177
		L20.053,19.151z"/>
	<g display="inline">
		<g>
			<path d="M23.616,15.47c0.392-0.548,0.392-0.666,0.862-1.175c0.547-0.313,1.018,0.157,1.487,0.431
				c0.509,0.352,1.332,0.626,1.292,1.41c-0.273,0.626-0.43,0.626-0.783,1.214C25.496,16.762,24.557,16.136,23.616,15.47z"/>
		</g>
		<g>
			<path d="M16.605,25.927c1.998-3.173,4.23-6.228,6.306-9.399c0.94,0.627,1.919,1.254,2.819,1.919
				c-2.075,3.134-4.229,6.228-6.344,9.36C18.25,28.59,17.076,29.256,15.939,30C16.136,28.668,16.371,27.298,16.605,25.927z"/>
		</g>
	</g>
</g>
<g id="Layer_2">
	<g>
		<g>
			<g>
				<path d="M17.598,25.893l0.498,2.168l2.084-0.482l8.768-13.81c0.451-0.721,0.232-1.673-0.49-2.124
					c-0.361-0.227-0.779-0.284-1.164-0.197c-0.385,0.089-0.734,0.324-0.961,0.685L17.598,25.893z M27.203,12.676
					c0.098-0.155,0.242-0.208,0.32-0.227c0.078-0.018,0.23-0.033,0.389,0.064c0.156,0.1,0.211,0.244,0.229,0.322
					c0.018,0.077,0.033,0.23-0.064,0.387l-8.541,13.451l-0.668,0.154l-0.174-0.75L27.203,12.676z"/>
			</g>
		</g>
		<path d="M20.674,18.809c-0.346-0.973-0.773-1.576-1.266-1.787l-0.084-0.037c-0.092-0.041-0.182-0.082-0.27-0.123
			c-0.146-0.066-0.285-0.133-0.422-0.195c-1.059-0.498-1.979-0.928-4.403-1.255c-0.006-0.131-0.014-0.316-0.02-0.469
			c-0.008-0.218-0.014-0.379-0.023-0.495c0.887-0.659,1.367-1.063,2.162-2.991c0.018,0.001,0.035,0.002,0.055,0.002
			c0.004,0,0.422-0.002,0.602-0.106c0.537-0.325,0.727-1.817,0.73-2.292c0.008-0.356-0.084-0.634-0.273-0.826
			c-0.115-0.12-0.26-0.189-0.389-0.221V8.001c0-0.295,0.063-0.68,0.127-1.087c0.115-0.712,0.232-1.45,0.076-1.981
			c-0.219-0.751-0.578-1.167-0.896-1.535c-0.205-0.239-0.4-0.464-0.541-0.763c-0.739-1.562-2.23-1.563-2.732-1.557
			c-0.046-0.017-0.178-0.125-0.284-0.21c-0.416-0.337-1.13-0.922-2.067-0.821C10.122,0.117,9.722,0.664,9.3,1.242
			c-0.342,0.467-0.695,0.95-1.186,1.204C6.825,3.104,6.671,3.542,6.471,4.391C6.433,4.553,6.39,4.733,6.332,4.937
			c-0.15,0.516-0.037,1.238,0.074,1.936c0.066,0.419,0.128,0.814,0.128,1.128c0,0.004,0,0.008,0,0.011
			C6.44,8.037,6.326,8.09,6.221,8.196c-0.186,0.186-0.28,0.476-0.278,0.863c0.007,0.479,0.202,1.972,0.738,2.293
			c0.171,0.103,0.476,0.106,0.511,0.106c0.022,0,0.045-0.001,0.069-0.002c0.807,1.962,1.253,2.341,2.151,2.998
			c-0.01,0.121-0.017,0.285-0.027,0.508c-0.006,0.146-0.014,0.326-0.021,0.452c-2.402,0.346-3.308,0.77-4.351,1.26L4.649,16.84
			c-0.752,0.166-2.448,1.211-2.674,7.203c-0.002,0.064,0.021,0.127,0.065,0.172c0.044,0.047,0.105,0.072,0.169,0.072h15
			L20.674,18.809z"/>
	</g>
</g>
</svg>
