<?xml version="1.0" encoding="utf-8"?>
<!-- Generator: Adobe Illustrator 16.0.0, SVG Export Plug-In . SVG Version: 6.00 Build 0)  -->
<!DOCTYPE svg PUBLIC "-//W3C//DTD SVG 1.1//EN" "http://www.w3.org/Graphics/SVG/1.1/DTD/svg11.dtd">
<svg version="1.1" xmlns="http://www.w3.org/2000/svg" xmlns:xlink="http://www.w3.org/1999/xlink" x="0px" y="0px" width="25px"
	 height="24px" viewBox="0 0 25 24" enable-background="new 0 0 25 24" xml:space="preserve">
<g id="Layer_3">
	<rect x="17" y="14" fill="#FFFFFF" width="6" height="8"/>
	<rect x="2" y="14" fill="#FFFFFF" width="6" height="8"/>
</g>
<g id="Layer_2">
	<g>
		
			<path fill="none" stroke="#FFFFFF" stroke-width="1.2444" stroke-linecap="round" stroke-linejoin="round" stroke-miterlimit="10" d="
			M1.935,13.32l2.559-9.041c0,0,0.098-0.279,0.404-0.279C5.18,4,17.803,4,19.846,4c0.307,0,0.356,0.254,0.356,0.254l2.877,9.207
			v7.541c0,0-0.018,0.422-0.42,0.422c-0.307,0-17.973,0-20.359,0c-0.316,0-0.378-0.453-0.378-0.453L1.935,13.32z"/>
		<path fill="#FFFFFF" d="M2.603,12.141c0,0-0.261,1.455,1.781,1.455h3.38c0,0,0.76,0.076,0.76,0.828c0,0,0.368,3.639,3.931,3.639
			v3.336L2.079,21.375l-0.026-8.757L2.603,12.141z"/>
		<path fill="#FFFFFF" d="M22.044,12.141c0,0,0.263,1.455-1.782,1.455h-3.379c0,0-0.759,0.076-0.759,0.828
			c0,0-0.37,3.639-3.932,3.639v3.336l10.375-0.023l0.026-8.757L22.044,12.141z"/>
	</g>
</g>
</svg>
