<?xml version="1.0" encoding="utf-8"?>
<!-- Generator: Adobe Illustrator 16.0.0, SVG Export Plug-In . SVG Version: 6.00 Build 0)  -->
<!DOCTYPE svg PUBLIC "-//W3C//DTD SVG 1.1//EN" "http://www.w3.org/Graphics/SVG/1.1/DTD/svg11.dtd">
<svg version="1.1" id="Layer_1" xmlns="http://www.w3.org/2000/svg" xmlns:xlink="http://www.w3.org/1999/xlink" x="0px" y="0px"
	 width="23px" height="32px" viewBox="0 0 23 32" enable-background="new 0 0 23 32" xml:space="preserve">
<path fill="#FFFFFF" d="M20.914,13.898L5.116,1.218C3.871,0.325,2.748,0.057,1.845,0.429C0.427,1.01,0.425,2.297,0.423,3.067
	l0.008,25.826L0.43,29.063c-0.01,0.726-0.027,1.94,1.297,2.429c0.321,0.119,0.651,0.241,1.019,0.241
	c0.517,0,1.665-0.636,1.971-0.844l16.151-12.308c0.059-0.041,0.124-0.084,0.195-0.131c0.587-0.381,1.568-1.021,1.514-2.19
	C22.517,15.029,21.476,14.293,20.914,13.898z"/>
<g>
</g>
<g>
</g>
<g>
</g>
<g>
</g>
<g>
</g>
<g>
</g>
</svg>
