<?xml version="1.0" encoding="utf-8"?>
<!-- Generator: Adobe Illustrator 16.0.0, SVG Export Plug-In . SVG Version: 6.00 Build 0)  -->
<!DOCTYPE svg PUBLIC "-//W3C//DTD SVG 1.1//EN" "http://www.w3.org/Graphics/SVG/1.1/DTD/svg11.dtd">
<svg version="1.1" id="Layer_2" xmlns="http://www.w3.org/2000/svg" xmlns:xlink="http://www.w3.org/1999/xlink" x="0px" y="0px"
	 width="25px" height="25px" viewBox="0 0 25 25" enable-background="new 0 0 25 25" xml:space="preserve">
<path fill="#FFFFFF" d="M23.326,10.962h-9.309V1.654c0-0.844-0.686-1.529-1.528-1.529c-0.842,0-1.528,0.685-1.528,1.529v9.308H1.653
	c-0.843,0.001-1.528,0.687-1.528,1.529c0,0.844,0.685,1.527,1.528,1.527h9.308v9.309c0,0.846,0.686,1.529,1.527,1.529
	c0.844,0,1.528-0.684,1.528-1.529v-9.309h9.309c0.844,0,1.527-0.684,1.527-1.527C24.854,11.648,24.17,10.962,23.326,10.962z"/>
</svg>
