<?xml version="1.0" encoding="utf-8"?>
<!-- Generator: Adobe Illustrator 16.0.0, SVG Export Plug-In . SVG Version: 6.00 Build 0)  -->
<!DOCTYPE svg PUBLIC "-//W3C//DTD SVG 1.1//EN" "http://www.w3.org/Graphics/SVG/1.1/DTD/svg11.dtd">
<svg version="1.1" id="Layer_5" xmlns="http://www.w3.org/2000/svg" xmlns:xlink="http://www.w3.org/1999/xlink" x="0px" y="0px"
	 width="25px" height="24px" viewBox="0 0 25 24" enable-background="new 0 0 25 24" xml:space="preserve">
<g>
	
		<path fill="none" stroke="#FFFFFF" stroke-width="0.9786" stroke-linecap="round" stroke-linejoin="round" stroke-miterlimit="10" d="
		M18.807,5.144h2.91c0,0,0.131,8.438-3.865,8.438"/>
	
		<path fill="none" stroke="#FFFFFF" stroke-width="0.9786" stroke-linecap="round" stroke-linejoin="round" stroke-miterlimit="10" d="
		M6.308,5.144H3.45c0,0-0.132,8.438,3.864,8.438"/>
</g>
<path fill="#FFFFFF" d="M17.863,21.827c-1.399-0.767-3.038-2.031-3.439-2.799c5.046-5.761,4.791-10.762,4.778-10.943V3.078
	c0-0.27-0.219-0.489-0.491-0.489H6.354c-0.271,0-0.49,0.219-0.49,0.489l0.001,4.976c-0.014,0.212-0.269,5.212,4.773,10.972
	c-0.459,0.822-2.416,2.204-3.461,2.727c-0.171,0.085-0.276,0.262-0.271,0.454l0.021,0.598c0.01,0.265,0.226,0.474,0.49,0.474H17.65
	c0.133,0,0.263-0.055,0.352-0.153c0.094-0.094,0.145-0.223,0.137-0.356l-0.021-0.53C18.11,22.066,18.014,21.909,17.863,21.827z
	 M12.322,10.1l-1.909,1.388l0.729-2.245L9.233,7.856h2.361l0.729-2.245l0.729,2.245h2.36l-1.909,1.387l0.73,2.245L12.322,10.1z"/>
</svg>
