<?xml version="1.0" encoding="utf-8"?>
<!-- Generator: Adobe Illustrator 16.0.0, SVG Export Plug-In . SVG Version: 6.00 Build 0)  -->
<!DOCTYPE svg PUBLIC "-//W3C//DTD SVG 1.1//EN" "http://www.w3.org/Graphics/SVG/1.1/DTD/svg11.dtd">
<svg version="1.1" id="Layer_1" xmlns="http://www.w3.org/2000/svg" xmlns:xlink="http://www.w3.org/1999/xlink" x="0px" y="0px"
	 width="38px" height="38px" viewBox="0 0 38 38" enable-background="new 0 0 38 38" xml:space="preserve">
<g>
	<path fill="#FFFFFF" d="M21.791,11.5273L19.0771,8.812c-0.042-0.0435-0.1113-0.0435-0.1533,0l-2.7148,2.7153
		c-3.5986,1.2026-6.0127,4.5513-6.0127,8.3496c0,4.8555,3.9492,8.8047,8.8047,8.8047c4.8545,0,8.8057-3.9482,8.8057-8.8047
		C27.8066,16.0786,25.3906,12.73,21.791,11.5273z"/>
	<g>
		<path fill="#FFFFFF" d="M17.4756,6.8867C17.8833,6.479,18.4243,6.2549,19,6.2549c0.5752,0,1.1172,0.2241,1.5234,0.6318
			l2.4922,2.4907l2.9766-6.875C23.8447,1.5894,21.4805,1.0859,19,1.0859c-2.6787,0-5.2183,0.5918-7.5,1.6455l3.5142,6.6167
			L17.4756,6.8867z"/>
		<path fill="#FFFFFF" d="M13.5869,10.0483l-3.4976-6.5864C5.9565,5.8369,2.8584,9.8091,1.6455,14.54l6.978,0.9946
			C9.6035,13.2192,11.3403,11.2759,13.5869,10.0483z"/>
		<path fill="#FFFFFF" d="M29.2754,15.3037l7.0791-0.7715c-1.2617-4.9126-4.5557-9.0088-8.9297-11.3438l-2.9775,6.8779
			C26.6035,11.2529,28.2852,13.1025,29.2754,15.3037z"/>
		<path fill="#FFFFFF" d="M9.9814,26.6699l-4.5283,4.0469c2.9766,3.4395,7.2354,5.7295,12.0347,6.1299l0.2534-5.7139
			C14.5713,30.7773,11.8018,29.1016,9.9814,26.6699z"/>
		<path fill="#FFFFFF" d="M36.6777,16.0957l-6.8398,0.7451c0.2813,0.9888,0.4375,2.0264,0.4375,3.0928
			c0,1.9297-0.4893,3.7461-1.3477,5.3359l4.5137,4.3301c2.1826-2.9678,3.4727-6.6318,3.4727-10.5986
			C36.9141,18.0112,36.833,17.042,36.6777,16.0957z"/>
		<path fill="#FFFFFF" d="M19.3301,31.1914l-0.2529,5.7207c5.3242-0.0205,10.0957-2.3662,13.3643-6.0723l-4.3926-4.21
			C26.0547,29.3184,22.9004,31.0879,19.3301,31.1914z"/>
		<path fill="#FFFFFF" d="M7.7261,19.9336c0-0.9878,0.1353-1.9478,0.3765-2.8706l-6.7798-0.9673
			C1.1685,17.042,1.085,18.0112,1.085,19c0,3.9102,1.2559,7.5234,3.3813,10.4688l4.6357-4.1426
			C8.2266,23.7227,7.7261,21.8848,7.7261,19.9336z"/>
	</g>
</g>
</svg>
