<?xml version="1.0" encoding="utf-8"?>
<!-- Generator: Adobe Illustrator 16.0.0, SVG Export Plug-In . SVG Version: 6.00 Build 0)  -->
<!DOCTYPE svg PUBLIC "-//W3C//DTD SVG 1.1//EN" "http://www.w3.org/Graphics/SVG/1.1/DTD/svg11.dtd">
<svg version="1.1" xmlns="http://www.w3.org/2000/svg" xmlns:xlink="http://www.w3.org/1999/xlink" x="0px" y="0px" width="25px"
	 height="24px" viewBox="0 0 25 24" enable-background="new 0 0 25 24" xml:space="preserve">
<g id="Layer_1" display="none">
	
		<image display="inline" overflow="visible" width="1920" height="1080" xlink:href="39D62DDE.jpg"  transform="matrix(1 0 0 1 -895.6729 -535.272)">
	</image>
</g>
<g id="Layer_6">
	<g id="Layer_4_1_">
		
			<polygon fill="#FFFFFF" stroke="#FFFFFF" stroke-width="1.6174" stroke-linecap="round" stroke-linejoin="round" stroke-miterlimit="10" points="
			2.083,9.517 2.083,15.512 7.602,15.512 11.978,20.079 11.978,4.665 7.602,9.517 		"/>
		<g>
			
				<path fill="none" stroke="#FFFFFF" stroke-width="1.6174" stroke-linecap="round" stroke-linejoin="round" stroke-miterlimit="10" d="
				M16.164,7.709c0.952,1.237,1.521,2.854,1.521,4.566c0,1.81-0.569,3.427-1.521,4.663"/>
			
				<path fill="none" stroke="#FFFFFF" stroke-width="1.6174" stroke-linecap="round" stroke-linejoin="round" stroke-miterlimit="10" d="
				M19.495,5.14c1.427,1.998,2.378,4.472,2.378,7.231c0,2.758-0.856,5.329-2.378,7.326"/>
		</g>
	</g>
</g>
<g id="Layer_3" display="none">
	<rect x="17" y="13" display="inline" fill="#FFFFFF" width="7" height="8"/>
	<rect x="2" y="13" display="inline" fill="#FFFFFF" width="6" height="8"/>
</g>
<g id="Layer_2" display="none">
	<g display="inline">
		
			<path fill="none" stroke="#FFFFFF" stroke-width="1.2682" stroke-linecap="round" stroke-linejoin="round" stroke-miterlimit="10" d="
			M1.771,12.249l2.608-9.214c0,0,0.1-0.284,0.412-0.284c0.287,0,13.152,0,15.234,0c0.313,0,0.363,0.258,0.363,0.258l2.932,9.383
			v7.686c0,0-0.018,0.429-0.428,0.429c-0.313,0-18.316,0-20.749,0c-0.323,0-0.385-0.461-0.385-0.461L1.771,12.249z"/>
		<path fill="#FFFFFF" d="M2.453,11.046c0,0-0.266,1.482,1.815,1.482h3.445c0,0,0.774,0.077,0.774,0.844
			c0,0,0.375,3.707,4.006,3.707v3.401L1.918,20.456l-0.026-8.923L2.453,11.046z"/>
		<path fill="#FFFFFF" d="M22.266,11.046c0,0,0.268,1.482-1.816,1.482h-3.443c0,0-0.773,0.077-0.773,0.844
			c0,0-0.377,3.707-4.007,3.707v3.401l10.573-0.025l0.027-8.923L22.266,11.046z"/>
	</g>
</g>
<g id="Layer_4" display="none">
	<polygon display="inline" fill="#FFFFFF" points="3.87,13.303 8.859,13.303 9.619,23.4 3.219,23.406 	"/>
	<rect x="3.532" y="10.361" display="inline" fill="#FFFFFF" width="5.772" height="2.098"/>
	<path display="inline" fill="#FFFFFF" d="M22.132,15.773H22.13v-2.06l-5.479,2.069v-2.069l-6.688,2.548l0.526,7.145l11.66-0.006
		L22.132,15.773z M14.422,21.167h-2.275v-2.813h2.275V21.167z M17.688,21.167h-2.276v-2.813h2.276V21.167z M20.771,21.167h-2.275
		v-2.813h2.275V21.167z"/>
	<g display="inline">
		<path fill-rule="evenodd" clip-rule="evenodd" fill="#FFFFFF" d="M5.364,9.625C5.196,7.986,3.8,7.564,3.296,6.724
			c-0.757-1.43-0.547-3.027,0.63-4.121c0.772-0.7,2.529-1.051,3.033-0.396c0.219-2.183,5.828-2.297,5.791,0.57
			c1.852-1.43,4.423,0.331,4.171,3.106c-0.253,2.355-4.976,4.347-6.454,0.923C10.165,8.25,7.714,8.417,7.311,6.604
			C5.697,7.342,7.785,8.306,6.783,9.627L5.364,9.625z"/>
	</g>
</g>
<g id="Layer_5" display="none">
	<g display="inline">
		
			<path fill="none" stroke="#FFFFFF" stroke-width="0.9786" stroke-linecap="round" stroke-linejoin="round" stroke-miterlimit="10" d="
			M18.807,5.144h2.91c0,0,0.131,8.438-3.865,8.438"/>
		
			<path fill="none" stroke="#FFFFFF" stroke-width="0.9786" stroke-linecap="round" stroke-linejoin="round" stroke-miterlimit="10" d="
			M6.308,5.144H3.45c0,0-0.132,8.438,3.864,8.438"/>
	</g>
	<path display="inline" fill="#FFFFFF" d="M17.863,21.827c-1.399-0.767-3.038-2.031-3.439-2.799
		c5.046-5.761,4.791-10.762,4.778-10.943V3.078c0-0.27-0.219-0.489-0.491-0.489H6.354c-0.271,0-0.49,0.219-0.49,0.489l0.001,4.976
		c-0.014,0.212-0.269,5.212,4.773,10.972c-0.459,0.822-2.416,2.204-3.461,2.727c-0.171,0.085-0.276,0.262-0.271,0.454l0.021,0.598
		c0.01,0.265,0.226,0.474,0.49,0.474H17.65c0.133,0,0.263-0.055,0.352-0.153c0.094-0.094,0.145-0.223,0.137-0.356l-0.021-0.53
		C18.11,22.066,18.014,21.909,17.863,21.827z M12.322,10.1l-1.909,1.388l0.729-2.245L9.233,7.856h2.361l0.729-2.245l0.729,2.245
		h2.36l-1.909,1.387l0.73,2.245L12.322,10.1z"/>
</g>
</svg>
