<?xml version="1.0" encoding="utf-8"?>
<!-- Generator: Adobe Illustrator 16.0.0, SVG Export Plug-In . SVG Version: 6.00 Build 0)  -->
<!DOCTYPE svg PUBLIC "-//W3C//DTD SVG 1.1//EN" "http://www.w3.org/Graphics/SVG/1.1/DTD/svg11.dtd">
<svg version="1.1" id="Layer_1" xmlns="http://www.w3.org/2000/svg" xmlns:xlink="http://www.w3.org/1999/xlink" x="0px" y="0px"
	 width="25px" height="24px" viewBox="0 0 25 24" enable-background="new 0 0 25 24" xml:space="preserve">
<g id="Layer_1_2_">
	<g id="Layer_1_1_" display="none">
		<g id="Shape_52" display="inline">
			<g>
				<path fill="#FFFFFF" stroke="#FFFFFF" stroke-miterlimit="10" d="M12.5,0.5C6,0.5,0.7,5.6,0.7,12c0,6.4,5.3,11.5,11.8,11.5
					S24.3,18.3,24.3,12C24.3,5.6,19,0.5,12.5,0.5z M13.3,18.9c-0.4,0.3-0.8,0.5-1.4,0.5l0,0c-0.5,0-1-0.2-1.3-0.5
					C10.2,18.6,10.1,18.1,10.1,17.6s0.2-1,0.5-1.3c0.3-0.3,0.8-0.5,1.3-0.5s1,0.101,1.4,0.5c0.4,0.3,0.5,0.8,0.5,1.3
					S13.6,18.6,13.3,18.9z M16.4,10.1c-0.2,0.4-0.4,0.8-0.7,1.2c-0.3,0.3-0.601,0.6-0.9,0.8c-0.3,0.2-0.6,0.4-0.8,0.7
					c-0.2,0.2-0.4,0.5-0.6,0.8C13.3,13.9,13.2,14.3,13.2,14.7V15h-2.8v-0.3c0-0.2,0-0.4,0-0.601c0-0.399,0-0.802,0.1-1.102
					c0.1-0.5,0.3-0.9,0.6-1.3c0.2-0.4,0.5-0.7,0.8-0.9c0.3-0.2,0.6-0.5,0.8-0.7c0.2-0.2,0.399-0.4,0.6-0.6
					c0.101-0.2,0.2-0.4,0.2-0.7c0-0.4-0.1-0.6-0.3-0.8c-0.101-0.2-0.5-0.3-1.1-0.3c-0.2,0-0.4,0-0.6,0.1c-0.2,0-0.4,0.1-0.6,0.2
					c-0.2,0.1-0.4,0.2-0.6,0.3c-0.2,0.1-0.4,0.2-0.5,0.3H9.4L8.2,6.3l0.2-0.2c0.5-0.3,1.1-0.6,1.8-0.8C10.9,5.1,11.7,5,12.6,5
					c1.3,0,2.3,0.3,3,0.9C16.4,6.5,16.7,7.4,16.7,8.4C16.7,9,16.6,9.6,16.4,10.1z"/>
			</g>
		</g>
	</g>
	<g id="Layer_2" display="none">
		<g display="inline">
			<g>
				<g>
					<path fill="#FFFFFF" stroke="#FFFFFF" stroke-miterlimit="10" d="M23.5,7.9L21.7,2c0-0.1-0.101-0.2-0.2-0.2h-2.4H5.8H3.4
						C3.3,1.9,3.2,1.9,3.1,2L1.3,7.9H23.5z"/>
					<path fill="#FFFFFF" stroke="#FFFFFF" stroke-miterlimit="10" d="M23.7,8.5H1.2L1.1,8.9V9C1.1,9.2,1,9.3,1,9.5
						c0,1.2,1.1,2.2,2.4,2.2c1,0,1.9-0.6,2.2-1.4C6.1,11.2,7,11.8,8,11.8s1.9-0.6,2.2-1.4c0.4,0.8,1.2,1.4,2.2,1.4
						c1,0,1.9-0.6,2.2-1.4c0.4,0.8,1.2,1.4,2.2,1.4s1.9-0.6,2.2-1.4c0.4,0.8,1.2,1.4,2.2,1.4c1.3,0,2.399-1,2.399-2.2
						c0-0.2,0-0.5-0.102-0.7L23.7,8.5z"/>
				</g>
				
					<line fill="none" stroke="#FFFFFF" stroke-width="1.8624" stroke-linecap="round" stroke-linejoin="round" stroke-miterlimit="10" x1="4.1" y1="12.7" x2="4.1" y2="21.9"/>
				
					<line fill="none" stroke="#FFFFFF" stroke-width="1.8624" stroke-linecap="round" stroke-linejoin="round" stroke-miterlimit="10" x1="20.9" y1="12.7" x2="20.9" y2="21.9"/>
			</g>
		</g>
		<rect x="4.1" y="16.8" display="inline" fill="#FFFFFF" stroke="#FFFFFF" stroke-miterlimit="10" width="16.8" height="5.3"/>
	</g>
	<g id="Layer_3" display="none">
		<path display="inline" fill="#FFFFFF" stroke="#FFFFFF" stroke-miterlimit="10" d="M6.5,8.1c0.5,0,0.9,0,1.4,0
			c0.2,0,0.3,0.2,0.3,0.3c0,0.7,0.4,1.3,1.1,1.6c0.7,0.3,1.4,0.1,1.9-0.4c0.1-0.1,0.3-0.1,0.4,0c0.4,0.3,0.7,0.6,1,1
			c0.1,0.1,0.1,0.3,0,0.5c-0.5,0.5-0.6,1.2-0.4,1.9c0.3,0.7,0.899,1.1,1.6,1.1c0.2,0,0.3,0.103,0.3,0.301
			c0.103,0.602,0,1.199,0,1.699C13.3,16,12.5,16.4,12.2,17.2c-0.3,0.7-0.1,1.399,0.4,1.899c0.1,0.101,0.1,0.301,0,0.398
			c-0.3,0.398-0.6,0.7-1,1c-0.1,0.102-0.3,0.102-0.5,0c-0.5-0.5-1.2-0.602-1.9-0.398C8.5,20.4,8.1,21,8.1,21.7C8.1,21.9,8,22,7.8,22
			c-0.5,0-0.9,0-1.4,0c-0.2,0-0.3-0.2-0.3-0.3C6.1,21,5.7,20.4,5,20.1c-0.7-0.3-1.4-0.1-1.9,0.4c-0.1,0.1-0.3,0.1-0.4,0
			c-0.4-0.3-0.7-0.6-1-1c-0.1-0.1-0.1-0.3,0-0.5c0.5-0.5,0.6-1.2,0.4-1.9C1.8,16.4,1.2,16,0.5,16c-0.2,0-0.3-0.1-0.3-0.3
			c0-0.5,0-0.9,0-1.4c0-0.2,0.2-0.3,0.3-0.3c0.7,0,1.3-0.4,1.6-1.1c0.3-0.7,0.1-1.4-0.4-1.9c-0.1-0.1-0.1-0.3,0-0.5
			c0.3-0.4,0.6-0.7,1-1c0.1-0.1,0.3-0.1,0.5,0c0.5,0.5,1.2,0.6,1.9,0.4C5.8,9.6,6.2,9,6.2,8.3C6.2,8.3,6.4,8.1,6.5,8.1L6.5,8.1z
			 M6.6,13.7C5.8,14,5.4,15,5.7,15.8C6,16.6,7,17,7.8,16.7C8.6,16.4,9,15.4,8.7,14.6C8.4,13.7,7.4,13.3,6.6,13.7z"/>
		<path display="inline" fill="#FFFFFF" stroke="#FFFFFF" stroke-miterlimit="10" d="M18.5,1c0.4,0,0.8,0,1.1,0
			c0.103,0,0.2,0.1,0.2,0.3c0,0.6,0.3,1.1,0.9,1.3c0.5,0.2,1.2,0.1,1.6-0.3c0.101-0.1,0.3-0.1,0.4,0c0.3,0.2,0.6,0.5,0.8,0.8
			c0.1,0.1,0.1,0.3,0,0.4c-0.4,0.4-0.5,1-0.3,1.6C23.4,5.6,24,6,24.5,6c0.1,0,0.3,0.1,0.3,0.2c0,0.5,0,0.9,0,1.4
			c-0.6-0.1-1.3,0.3-1.5,0.9C23,9,23.1,9.6,23.5,10c0.1,0.1,0.1,0.3,0,0.4c-0.2,0.3-0.5,0.6-0.8,0.8c-0.101,0.1-0.3,0.1-0.4,0
			c-0.399-0.4-1-0.5-1.6-0.3c-0.5,0.2-0.9,0.8-0.9,1.3c0,0.1-0.1,0.3-0.2,0.3c-0.397,0-0.8,0-1.1,0c-0.1,0-0.2-0.1-0.3-0.3
			c0-0.6-0.3-1.1-0.9-1.3c-0.6-0.2-1.2-0.1-1.6,0.3c-0.101,0.1-0.3,0.1-0.4,0c-0.3-0.2-0.6-0.5-0.8-0.8c-0.1-0.1-0.1-0.3,0-0.4
			C15,9.6,15.2,9,15,8.4c-0.2-0.5-0.8-0.9-1.3-0.9c-0.101,0-0.3-0.1-0.3-0.3c0-0.4,0-0.8,0-1.1c0-0.1,0.1-0.2,0.3-0.2
			c0.6,0,1.1-0.3,1.3-0.9c0.2-0.5,0.1-1.2-0.3-1.6C14.6,3.3,14.6,3.1,14.7,3c0.2-0.3,0.5-0.6,0.8-0.8c0.1-0.1,0.3-0.1,0.4,0
			c0.397,0.4,1,0.5,1.6,0.3c0.5-0.2,0.9-0.8,0.9-1.3C18.3,1.2,18.4,1,18.5,1L18.5,1z M18.6,5.5c-0.699,0.3-1,1-0.699,1.7
			c0.302,0.7,1,1,1.699,0.7c0.7-0.3,1-1,0.7-1.7C20,5.6,19.2,5.3,18.6,5.5z"/>
	</g>
	<g id="Layer_4">
		
			<polygon fill="#FFFFFF" stroke="#FFFFFF" stroke-width="1.7" stroke-linecap="round" stroke-linejoin="round" stroke-miterlimit="10" points="
			2.1,8.9 2.1,15.2 7.9,15.2 12.5,20 12.5,3.8 7.9,8.9 		"/>
	</g>
</g>
<line fill="none" stroke="#FFFFFF" stroke-width="1.5" stroke-linecap="round" stroke-miterlimit="10" x1="15.855" y1="8.345" x2="23.143" y2="15.46"/>
<line fill="none" stroke="#FFFFFF" stroke-width="1.5" stroke-linecap="round" stroke-miterlimit="10" x1="15.855" y1="15.46" x2="23.143" y2="8.345"/>
</svg>
