<?xml version="1.0" encoding="utf-8"?>
<!-- Generator: Adobe Illustrator 16.0.0, SVG Export Plug-In . SVG Version: 6.00 Build 0)  -->
<!DOCTYPE svg PUBLIC "-//W3C//DTD SVG 1.1//EN" "http://www.w3.org/Graphics/SVG/1.1/DTD/svg11.dtd">
<svg version="1.1" id="Layer_2_1_" xmlns="http://www.w3.org/2000/svg" xmlns:xlink="http://www.w3.org/1999/xlink" x="0px" y="0px"
	 width="25px" height="25px" viewBox="0 0 25 25" enable-background="new 0 0 25 25" xml:space="preserve">
<path fill="#FFFFFF" d="M23.004,4.096h-5.277V2.809c0.007-0.138-0.001-0.573-0.32-0.925c-0.178-0.198-0.518-0.433-1.11-0.433
	c-0.965,0-7.4,0.018-7.393,0.018C8.828,1.47,8.204,1.472,7.77,1.9c-0.249,0.247-0.38,0.58-0.38,0.963v1.233H1.996
	c-0.302,0-0.548,0.245-0.548,0.547c0,0.302,0.246,0.547,0.548,0.547h2.383l0.023,0.303l0.961,15.906
	c0,0.021,0.072,2.152,2.151,2.152h10.517c0.596,0,1.072-0.177,1.42-0.525c0.559-0.56,0.563-1.355,0.563-1.375l0.981-16.46h2.008
	c0.303,0,0.549-0.245,0.549-0.547C23.553,4.341,23.307,4.096,23.004,4.096z M5.926,22.057c0.198,0.351,0.487,0.695,0.922,0.959
	C6.328,22.822,6.062,22.418,5.926,22.057z M8.483,2.863c0-0.245,0.225-0.298,0.416-0.3c0,0,6.434-0.018,7.397-0.018
	c0.144,0,0.255,0.026,0.296,0.07c0.038,0.038,0.043,0.117,0.043,0.122c-0.002,0.019-0.003,0.037-0.003,0.056v1.304H8.483V2.863z
	 M9.531,19.602c-0.013,0.002-0.026,0.002-0.04,0.002c-0.246,0-0.456-0.189-0.476-0.439L8.17,8.791
	C8.148,8.527,8.345,8.295,8.609,8.274c0.259-0.02,0.494,0.175,0.516,0.439l0.844,10.373C9.991,19.35,9.795,19.58,9.531,19.602z
	 M13.285,19.125c0,0.266-0.215,0.479-0.479,0.479c-0.265,0-0.479-0.213-0.479-0.479V8.751c0-0.264,0.215-0.478,0.479-0.478
	c0.264,0,0.479,0.214,0.479,0.478V19.125z M16.742,19.15c-0.014,0.256-0.227,0.453-0.479,0.453c-0.008,0-0.018,0-0.026,0
	c-0.263-0.014-0.466-0.24-0.452-0.504l0.557-10.375c0.014-0.263,0.236-0.46,0.504-0.452c0.265,0.014,0.467,0.24,0.453,0.504
	L16.742,19.15z M19.153,22.727c-0.019,0.02-0.041,0.033-0.062,0.051c0.037-0.034,0.072-0.066,0.107-0.104
	C19.182,22.692,19.171,22.711,19.153,22.727z M20.533,5.884c0.01-0.283,0.02-0.514,0.025-0.694h0.018L20.533,5.884z"/>
</svg>
