<?xml version="1.0" encoding="utf-8"?>
<!-- Generator: Adobe Illustrator 16.0.0, SVG Export Plug-In . SVG Version: 6.00 Build 0)  -->
<!DOCTYPE svg PUBLIC "-//W3C//DTD SVG 1.1//EN" "http://www.w3.org/Graphics/SVG/1.1/DTD/svg11.dtd">
<svg version="1.1" xmlns="http://www.w3.org/2000/svg" xmlns:xlink="http://www.w3.org/1999/xlink" x="0px" y="0px" width="50px"
	 height="50px" viewBox="0 0 50 50" enable-background="new 0 0 50 50" xml:space="preserve">
<g id="Layer_1">
	<g>
		<g>
			<path fill="#FFFFFF" d="M19.37,10.136c3.45,0,6.804,1.248,9.441,3.515c1.305,1.12,2.389,2.445,3.222,3.938
				c0.86,1.544,1.426,3.223,1.68,4.989c1.133,7.914-4.382,15.276-12.293,16.412c-0.675,0.096-1.366,0.145-2.054,0.145
				c-1.692,0-3.35-0.29-4.927-0.862c-0.149-0.054-0.307-0.08-0.464-0.08c-0.203,0-0.406,0.044-0.591,0.131l-5.764,2.354
				c0.563-0.982,0.922-1.97,1.068-2.938c0.119-0.782,0.051-1.642-0.207-2.626c-0.136-0.524-0.357-1.04-0.695-1.625
				c-0.003-0.006-0.007-0.012-0.01-0.019c-0.168-0.289-0.346-0.578-0.527-0.872c-0.291-0.473-0.591-0.962-0.842-1.457
				c-0.741-1.456-1.159-2.785-1.397-4.446c-0.277-1.935-0.166-3.867,0.33-5.743c0.479-1.812,1.294-3.496,2.425-5.004
				c1.131-1.509,2.518-2.765,4.122-3.733c1.66-1.002,3.482-1.651,5.417-1.929C17.988,10.186,18.684,10.136,19.37,10.136
				 M19.37,8.771c-0.751,0-1.513,0.055-2.262,0.162c-2.116,0.303-4.111,1.013-5.93,2.111c-1.756,1.06-3.272,2.434-4.509,4.083
				c-1.236,1.65-2.128,3.492-2.652,5.475c-0.543,2.054-0.664,4.169-0.361,6.285c0.26,1.818,0.718,3.275,1.532,4.873
				c0.279,0.549,0.597,1.066,0.905,1.568c0.166,0.27,0.338,0.549,0.5,0.828c0.001,0.004,0.003,0.006,0.004,0.008
				c0.276,0.477,0.455,0.887,0.56,1.291c0.211,0.805,0.269,1.482,0.178,2.077C7.2,38.441,6.83,39.381,6.235,40.327
				c-0.066,0.105-0.129,0.202-0.196,0.299c-0.287,0.421-0.173,1.065,0.243,1.38c0.221,0.17,0.5,0.262,0.784,0.262
				c0.171,0,0.337-0.031,0.492-0.095l6.34-2.585c0.025-0.011,0.05-0.02,0.075-0.031c1.73,0.627,3.544,0.943,5.393,0.943
				c0.749,0,1.505-0.053,2.247-0.158c8.658-1.242,14.693-9.297,13.453-17.957c-0.277-1.932-0.896-3.769-1.839-5.46
				c-0.911-1.633-2.097-3.083-3.524-4.31C26.816,10.136,23.147,8.771,19.37,8.771L19.37,8.771z"/>
		</g>
	</g>
	<g>
		
			<path fill="none" stroke="#FFFFFF" stroke-width="1.3656" stroke-linecap="round" stroke-linejoin="round" stroke-miterlimit="10" d="
			M31.738,15.576c1.172-0.464,2.426-0.708,3.699-0.708c0.479,0,0.963,0.035,1.439,0.103c1.346,0.193,2.615,0.645,3.771,1.343
			c1.117,0.674,2.081,1.548,2.868,2.597c0.785,1.049,1.354,2.22,1.687,3.482c0.345,1.306,0.422,2.651,0.229,3.998
			c-0.166,1.154-0.457,2.082-0.975,3.098c-0.178,0.348-0.379,0.678-0.576,0.996c-0.105,0.172-0.214,0.351-0.317,0.527
			c-0.001,0.002-0.002,0.004-0.003,0.006c-0.176,0.304-0.289,0.564-0.356,0.82c-0.134,0.512-0.171,0.943-0.112,1.32
			c0.086,0.58,0.322,1.178,0.699,1.778c0.043,0.067,0.083,0.129,0.125,0.19c0.182,0.268,0.109,0.678-0.154,0.877
			c-0.141,0.107-0.318,0.168-0.499,0.168c-0.108,0-0.214-0.021-0.313-0.063l-4.032-1.643c-0.016-0.008-0.031-0.014-0.047-0.02
			c-1.102,0.398-2.254,0.6-3.43,0.6c-0.477,0-0.957-0.034-1.429-0.102c-0.981-0.141-1.91-0.419-2.77-0.813"/>
	</g>
</g>
<g id="Layer_2" display="none">
	<path display="inline" fill="#FFFFFF" d="M46.085,22.092c-0.367-1.389-0.99-2.676-1.853-3.824
		c-0.866-1.153-1.925-2.113-3.151-2.854c-1.271-0.768-2.665-1.264-4.143-1.474c-1.854-0.267-3.648-0.068-5.356,0.556
		c-0.566-0.678-1.184-1.306-1.839-1.867c-3.451-2.966-8.006-4.332-12.586-3.681c-2.117,0.305-4.111,1.016-5.928,2.111
		c-1.752,1.057-3.268,2.43-4.506,4.081c-1.236,1.652-2.128,3.492-2.651,5.472c-0.542,2.052-0.663,4.166-0.36,6.282
		c0.261,1.816,0.718,3.273,1.531,4.871c0.275,0.54,0.589,1.051,0.903,1.563c0.164,0.269,0.333,0.543,0.489,0.81
		c0.003,0.009,0.008,0.015,0.012,0.022c0.266,0.46,0.437,0.854,0.538,1.239c0.203,0.777,0.26,1.434,0.173,2.004
		c-0.133,0.882-0.493,1.796-1.071,2.717c-0.064,0.103-0.126,0.197-0.191,0.291c-0.323,0.476-0.196,1.2,0.271,1.553
		c0.244,0.187,0.55,0.289,0.86,0.289c0.185,0,0.365-0.035,0.538-0.104l6.307-2.574c2.411,0.864,5.004,1.131,7.586,0.768
		c3.692-0.529,7.09-2.358,9.576-5.151c0.829,0.334,1.689,0.567,2.56,0.692c0.514,0.074,1.041,0.111,1.568,0.111
		c1.271,0,2.522-0.216,3.722-0.642l4.375,1.786c0.339,0.135,0.729,0.082,1.014-0.134c0.343-0.261,0.437-0.791,0.198-1.138
		c-0.045-0.063-0.087-0.13-0.132-0.203c-0.4-0.636-0.649-1.266-0.741-1.875c-0.061-0.39-0.021-0.843,0.12-1.38
		c0.07-0.265,0.187-0.537,0.371-0.854c0.002-0.004,0.002-0.005,0.005-0.008c0.096-0.166,0.196-0.33,0.297-0.492l0.046-0.077
		c0.233-0.377,0.442-0.72,0.631-1.091c0.568-1.114,0.888-2.133,1.07-3.404C46.549,25.003,46.463,23.524,46.085,22.092z
		 M39.162,33.881c-0.031-0.013-0.066-0.015-0.098-0.002l-0.408,0.147c-1.482,0.535-3.09,0.697-4.666,0.478
		c-0.624-0.092-1.241-0.242-1.832-0.449c2.493-3.379,3.539-7.512,2.944-11.662c-0.276-1.931-0.895-3.766-1.837-5.455
		c-0.224-0.4-0.486-0.816-0.799-1.268c1.401-0.443,2.87-0.554,4.274-0.354c1.293,0.186,2.511,0.62,3.621,1.292
		c1.07,0.645,1.996,1.482,2.755,2.494c0.755,1.008,1.301,2.133,1.621,3.345c0.331,1.256,0.405,2.548,0.221,3.839
		c-0.16,1.111-0.438,1.999-0.936,2.971c-0.168,0.332-0.373,0.667-0.576,0.995l-0.075,0.124c-0.093,0.15-0.185,0.304-0.287,0.479
		c-0.248,0.427-0.411,0.808-0.515,1.201c-0.19,0.726-0.238,1.361-0.15,1.942c0.07,0.455,0.202,0.914,0.396,1.374l-3.221-1.315
		l-0.047,0.13l0.014-0.142L39.162,33.881z"/>
</g>
</svg>
