<?xml version="1.0" encoding="utf-8"?>
<!-- Generator: Adobe Illustrator 16.0.0, SVG Export Plug-In . SVG Version: 6.00 Build 0)  -->
<!DOCTYPE svg PUBLIC "-//W3C//DTD SVG 1.1//EN" "http://www.w3.org/Graphics/SVG/1.1/DTD/svg11.dtd">
<svg version="1.1" id="Layer_1" xmlns="http://www.w3.org/2000/svg" xmlns:xlink="http://www.w3.org/1999/xlink" x="0px" y="0px"
	 width="30px" height="30px" viewBox="0 0 30 30" style="enable-background:new 0 0 30 30;" xml:space="preserve">
<g>
	<path style="fill:#BC8F26;" d="M7.1,15c0,6,2.4,12.4,6,14.6c0.9,0.1,2.8,0.1,4.2,0c5.5-0.3,9.8-6.5,9.8-14.6
		c0-8.1-4.4-14.4-10-14.6c-1.2,0-2.8-0.1-3.9,0C9.4,2.5,7.1,8.8,7.1,15z"/>
	<path style="fill:#FFE15C;" d="M3.6,15c0,8.1,4.2,14.6,9.7,14.6s10-6.5,10-14.6c0-8.1-4.5-14.6-10-14.6S3.6,6.9,3.6,15z"/>
	<ellipse style="fill:#F7BA31;" cx="12.8" cy="15" rx="7.3" ry="11.9"/>
	<path style="fill:#FFFFFF;" d="M17,12.6c0,0.2,0,0.5,0,0.7c0,0.2,0,0.5-0.1,0.7l-0.2,1.5c-0.1,0.4-0.2,0.6-0.4,0.6h-5.6
		c0,0.2,0,0.4-0.1,0.6c0,0.2,0,0.4,0,0.5c0,0.7,0.1,1.2,0.4,1.4s0.6,0.4,1.2,0.4c0.3,0,0.6,0,0.9,0c0.3,0,0.6,0,0.9-0.1
		c0.3,0,0.6-0.1,0.9-0.1c0.3,0,0.5,0,0.7-0.1c0.1,0,0.2,0,0.3,0.1c0.1,0.1,0.1,0.2,0,0.4l-0.2,2c0,0.2-0.1,0.4-0.1,0.5
		c-0.1,0.1-0.2,0.2-0.3,0.2c-0.6,0.2-1.2,0.4-1.7,0.5c-0.6,0.1-1.2,0.2-2,0.2c-0.5,0-0.9-0.1-1.4-0.3c-0.4-0.2-0.8-0.5-1.2-1
		c-0.3-0.4-0.6-1-0.8-1.7c-0.2-0.7-0.3-1.5-0.3-2.4c0-0.2,0-0.5,0-0.7c0-0.2,0-0.5,0.1-0.8L8.1,14c0.3-2.3,0.8-4,1.7-5.2
		c0.9-1.2,2.1-1.7,3.5-1.7c0.6,0,1.1,0.1,1.6,0.4c0.5,0.3,0.8,0.7,1.1,1.2c0.3,0.5,0.5,1.1,0.7,1.8C16.9,11.1,17,11.8,17,12.6z
		 M14.4,12.4c0-0.6-0.1-1.1-0.3-1.4c-0.2-0.3-0.6-0.5-1.1-0.5c-0.6,0-1.1,0.3-1.4,0.8c-0.3,0.6-0.5,1.3-0.7,2.2h3.3
		c0-0.2,0-0.4,0.1-0.6C14.4,12.8,14.4,12.6,14.4,12.4z"/>
</g>
</svg>
