<?xml version="1.0" encoding="utf-8"?>
<!-- Generator: Adobe Illustrator 16.0.0, SVG Export Plug-In . SVG Version: 6.00 Build 0)  -->
<!DOCTYPE svg PUBLIC "-//W3C//DTD SVG 1.1//EN" "http://www.w3.org/Graphics/SVG/1.1/DTD/svg11.dtd">
<svg version="1.1" id="Layer_1" xmlns="http://www.w3.org/2000/svg" xmlns:xlink="http://www.w3.org/1999/xlink" x="0px" y="0px"
	 width="30px" height="28.553px" viewBox="0 0 30 28.553" enable-background="new 0 0 30 28.553" xml:space="preserve">
<path fill="#FFFFFF" d="M29.979,5.185c0-2.053-1.664-3.717-3.718-3.717s-3.718,1.664-3.718,3.717c0,1.402,0.785,2.608,1.931,3.241
	c-0.066,2.106-1.782,3.796-3.905,3.796c-2.163,0-3.915-1.753-3.915-3.916c0-0.386,0.058-0.757,0.161-1.108
	c1.247-0.601,2.113-1.864,2.113-3.34c0-2.054-1.664-3.718-3.719-3.718c-2.053,0-3.717,1.664-3.717,3.718
	c0,1.323,0.695,2.477,1.735,3.135c0.15,0.412,0.238,0.85,0.238,1.313c0,2.163-1.754,3.916-3.917,3.916
	c-2.143,0-3.878-1.722-3.911-3.857c1.085-0.649,1.817-1.823,1.817-3.18c0-2.053-1.664-3.717-3.718-3.717S0.021,3.132,0.021,5.185
	c0,1.977,1.545,3.575,3.49,3.695L6.43,28.553h17.526l2.521-19.649l-0.019-0.021C28.418,8.779,29.979,7.171,29.979,5.185z"/>
<g>
</g>
<g>
</g>
<g>
</g>
<g>
</g>
<g>
</g>
<g>
</g>
</svg>
