<?xml version="1.0" encoding="utf-8"?>
<!-- Generator: Adobe Illustrator 16.0.0, SVG Export Plug-In . SVG Version: 6.00 Build 0)  -->
<!DOCTYPE svg PUBLIC "-//W3C//DTD SVG 1.1//EN" "http://www.w3.org/Graphics/SVG/1.1/DTD/svg11.dtd">
<svg version="1.1" id="Layer_1" xmlns="http://www.w3.org/2000/svg" xmlns:xlink="http://www.w3.org/1999/xlink" x="0px" y="0px"
	 width="27px" height="38px" viewBox="0 0 27 38" enable-background="new 0 0 27 38" xml:space="preserve">
<path fill="#FFFFFF" d="M25.436,14.504l-3.021-7.406l-1.422-3.687l-0.413-1.043c-0.107-0.272-0.382-0.453-0.667-0.436
	c-0.291,0.01-0.548,0.205-0.636,0.482c-0.067,0.207-1.686,5.065-7.444,3.795c-6.808-1.501-9.585,3.293-9.997,4.093
	c-0.279,0.21-0.403,0.58-0.264,0.919l9.95,24.358c0.125,0.306,0.42,0.49,0.732,0.49c0.099,0,0.2-0.018,0.298-0.059
	c0.403-0.164,0.598-0.625,0.432-1.029L7.807,22.309c0.192-0.527,1.771-4.25,7.637-2.953c5.785,1.277,9.739-3.955,9.907-4.178
	C25.494,14.983,25.525,14.728,25.436,14.504z"/>
</svg>
