<?xml version="1.0" encoding="utf-8"?>
<!-- Generator: Adobe Illustrator 16.0.0, SVG Export Plug-In . SVG Version: 6.00 Build 0)  -->
<!DOCTYPE svg PUBLIC "-//W3C//DTD SVG 1.1//EN" "http://www.w3.org/Graphics/SVG/1.1/DTD/svg11.dtd">
<svg version="1.1" id="Layer_1" xmlns="http://www.w3.org/2000/svg" xmlns:xlink="http://www.w3.org/1999/xlink" x="0px" y="0px"
	 width="60px" height="60px" viewBox="0 0 60 60" enable-background="new 0 0 60 60" xml:space="preserve">
<g id="Layer_1_2_" display="none">
	<g id="Layer_1_1_" display="inline">
		
			<linearGradient id="SVGID_1_" gradientUnits="userSpaceOnUse" x1="33.5" y1="1370.5" x2="68.5889" y2="1370.5" gradientTransform="matrix(1 0 0 1 -21.0996 -1314.4004)">
			<stop  offset="0" style="stop-color:#000000;stop-opacity:0.16"/>
			<stop  offset="0.0896" style="stop-color:#000000;stop-opacity:0.16"/>
			<stop  offset="1" style="stop-color:#000000;stop-opacity:0.16"/>
		</linearGradient>
		<ellipse fill="url(#SVGID_1_)" cx="29.9" cy="56.1" rx="17.5" ry="3.7"/>
		<g>
			<g>
				<g>
					<path fill="none" stroke="#9BA7B0" stroke-width="0.75" stroke-linecap="round" stroke-miterlimit="10" d="M10.3,39.6
						c0,0-0.9,4.301-1.7,8.301"/>
					<path fill="#9BA7B0" d="M8.4,47.5c0,0-0.8,0.7-0.9,2c-0.1,1.1,0.3,1.5,0.7,1.3c0.4-0.2-0.1-1.3,0.3-2.2c0,0-0.2,0.801,0.2,1.7
						C9,51,9.6,50.9,9.7,50.7c0.2-0.5-0.5-1-0.6-2.101c0,0,0.1,0.601,0.6,1s0.9,0.199,0.9-0.199c0-0.5-1-0.7-1.4-1.801
						C8.8,46.4,8.5,47.3,8.4,47.5z"/>
				</g>
			</g>
			<g>
				<g>
					<path fill="none" stroke="#9BA7B0" stroke-width="0.75" stroke-linecap="round" stroke-miterlimit="10" d="M48.5,39.6
						c0,0,0.9,4.301,1.7,8.301"/>
					<path fill="#9BA7B0" d="M50.4,47.5c0,0,0.8,0.7,0.898,2c0.102,1.1-0.3,1.5-0.699,1.3s0.101-1.3-0.301-2.2
						c0,0,0.2,0.801-0.199,1.7c-0.301,0.7-0.899,0.601-1,0.4c-0.199-0.5,0.5-1,0.601-2.101c0,0-0.101,0.601-0.601,1
						C48.6,50,48.2,49.8,48.2,49.4c0-0.5,1-0.7,1.399-1.801C50,46.4,50.3,47.3,50.4,47.5z"/>
				</g>
			</g>
			<g>
				<g>
					<path fill="none" stroke="#9BA7B0" stroke-width="0.75" stroke-miterlimit="10" d="M24.6,47.9c0,0-0.6,3.699-1.3,7"/>
					<path fill="#9BA7B0" d="M23.4,54.5c0,0-1.2-0.4-2.6-0.1c-1.4,0.3-2.1,1.6-0.4,1.898c1.6,0.301,3.2-0.8,3.3-1.199
						C23.8,54.7,23.4,54.5,23.4,54.5z"/>
				</g>
				<g>
					<path fill="none" stroke="#9BA7B0" stroke-width="0.75" stroke-miterlimit="10" d="M34,47.9c0,0,0.6,3.699,1.3,7"/>
					<path fill="#9BA7B0" d="M35.3,54.5c0,0,1.2-0.4,2.601-0.1C39.3,54.7,40,56,38.3,56.3c-1.6,0.3-3.2-0.8-3.3-1.2
						C34.9,54.7,35.3,54.5,35.3,54.5z"/>
				</g>
			</g>
			<g>
				<path fill="#8E45B7" d="M11.2,26.9c0,5.8-5.1,10-1.8,14.3c4.7,6,12,9.899,20.2,9.899c14,0,18.4-11.5,18.4-25.601
					c0-14.1-9.4-17-18.9-16.2C21.2,10,11.2,12.9,11.2,26.9z"/>
				<path fill="#F453B0" d="M29.3,25.5v25.6c0.1,0,0.2,0,0.2,0c8.1,0,15.3-3.8,20-9.699L29.3,25.5z"/>
				<path fill="#F42732" d="M49.5,41.6C53,37.2,55.1,31.7,55.1,25.7c0-2-0.199-4-0.699-5.9l-25,5.7L49.5,41.6z"/>
				<path fill="#FF9500" d="M29.3,25.5l25-5.5c-1.8-7.7-7-14-14-17.3L29.3,25.5z"/>
				<path fill="#F9DE41" d="M29.3,25.5L40.5,2.7c-3.3-1.6-7-2.5-10.9-2.5c-4,0-7.8,0.9-11.2,2.6L29.3,25.5z"/>
				<path fill="#20C968" d="M4.7,20.1l24.6,5.4L18.5,2.8C11.6,6.1,6.4,12.5,4.7,20.1z"/>
				<path fill="#1675CF" d="M4.8,20c-0.4,1.8-0.7,3.8-0.7,5.7c0,5.899,2,11.399,5.4,15.7l19.8-15.9L4.8,20z"/>
			</g>
			<g id="contento_9_">
				<g>
					<g>
						<path fill="#DBDBDB" stroke="#FFFFFF" stroke-width="1.2305" stroke-linejoin="round" stroke-miterlimit="10" d="M34.8,11
							l-5.2-6.4L24.1,11c-6.2,2.3-10.7,8.2-10.7,15.2c0,8.899,7.2,16.2,16.2,16.2c8.9,0,16.2-7.2,16.2-16.2
							C45.8,19.2,41.2,13.2,34.8,11z"/>
					</g>
					<g>
						
							<ellipse transform="matrix(-0.9155 0.4024 -0.4024 -0.9155 51.2071 15.2574)" fill="#333333" cx="24.001" cy="13.007" rx="1.5" ry="0.7"/>
						
							<ellipse transform="matrix(0.892 0.452 -0.452 0.892 9.7512 -14.418)" fill="#333333" cx="35.05" cy="13.198" rx="1.5" ry="0.7"/>
					</g>
					<path fill="#666666" d="M16.9,22.2c4.4,9.899,21.3,9.899,25.5-0.1C38.9,32.8,20.5,32.7,16.9,22.2z"/>
					<path fill="#666666" d="M15.7,23.1c0,0,0-0.1,0-0.2s0.1-0.3,0.2-0.4s0.2-0.2,0.3-0.2c1-0.7,2.3,0.3,2.9,1.1
						C18.1,22.9,16.5,21.8,15.7,23.1z"/>
					<path fill="#666666" d="M43.9,23c-0.801-1.3-2.4-0.2-3.4,0.2c0.6-0.8,1.9-1.7,2.9-1.1c0.1,0.1,0.199,0.2,0.3,0.2
						c0.1,0.2,0.2,0.3,0.2,0.4C43.9,22.9,43.9,23,43.9,23z"/>
					<path d="M26.2,24.7c0,0.7-0.6,1.2-1.2,1.2l0,0c-0.7,0-1.2-0.6-1.2-1.2v-5.4c0-0.7,0.6-1.2,1.2-1.2l0,0c0.7,0,1.2,0.6,1.2,1.2
						V24.7z"/>
					<path d="M35.2,24.7c0,0.7-0.601,1.2-1.2,1.2l0,0c-0.7,0-1.2-0.6-1.2-1.2v-5.4c0-0.7,0.601-1.2,1.2-1.2l0,0
						c0.7,0,1.2,0.6,1.2,1.2V24.7z"/>
				</g>
			</g>
		</g>
	</g>
	<g id="Layer_2" display="inline">
		
			<linearGradient id="SVGID_2_" gradientUnits="userSpaceOnUse" x1="32.2998" y1="1370.5" x2="67.999" y2="1370.5" gradientTransform="matrix(1 0 0 1 -21.0996 -1314.4004)">
			<stop  offset="0" style="stop-color:#000000;stop-opacity:0.16"/>
			<stop  offset="0.0896" style="stop-color:#000000;stop-opacity:0.16"/>
			<stop  offset="1" style="stop-color:#000000;stop-opacity:0.16"/>
		</linearGradient>
		<ellipse fill="url(#SVGID_2_)" cx="29.1" cy="56.1" rx="17.9" ry="3.8"/>
		<g>
			<line fill="none" stroke="#BC8F26" stroke-width="1.2" stroke-miterlimit="10" x1="47" y1="39.1" x2="47.5" y2="47.9"/>
			<path fill="#BC8F26" d="M46.9,47.5c0,0-1.5,1.4-0.9,2s1.1-1.2,1.1-1.4c0,0,0.5,2.301,1.5,2c1-0.3-0.898-2.1-0.898-2.1
				s1.898,1.2,2.3,0.4C50.4,47.6,48.1,47.4,46.9,47.5z"/>
		</g>
		<g>
			<line fill="none" stroke="#BC8F26" stroke-width="1.2" stroke-miterlimit="10" x1="11.8" y1="38.4" x2="10.9" y2="47.2"/>
			<path fill="#BC8F26" d="M11.5,46.9c0,0,1.4,1.398,0.8,2.1c-0.7,0.6-1-1.2-1-1.4c0,0-0.6,2.301-1.6,2c-1-0.3,0.9-2.1,0.9-2.1
				s-1.9,1.1-2.3,0.3C7.9,47,10.3,46.7,11.5,46.9z"/>
		</g>
		<g>
			<line fill="none" stroke="#BC8F26" stroke-width="1.85" stroke-miterlimit="10" x1="24.3" y1="47.1" x2="23.8" y2="54.6"/>
			<path fill="#BC8F26" d="M24.7,54.6c0,0-3.1,2.301-4.8,2.102c-1.7-0.2-2.1-2.102,0.5-2.4S24.8,54.2,24.7,54.6z"/>
		</g>
		<g>
			<line fill="none" stroke="#BC8F26" stroke-width="1.85" stroke-miterlimit="10" x1="32.7" y1="47.1" x2="33.2" y2="54.8"/>
			<path fill="#BC8F26" d="M32.3,54.8c0,0,3.2,2.4,4.9,2.2s2.1-2.2-0.5-2.5C34.1,54.2,32.3,54.4,32.3,54.8z"/>
		</g>
		<path fill="#BC8F26" d="M6.3,24.3c0,12.8,10.5,25,23.3,25c10.7,0,24.6-8.6,24.6-24.5C54.3,12,43.8,1.5,31,1.5
			C18.1,1.5,6.3,11.5,6.3,24.3z"/>
		<circle fill="#FFE15C" cx="28.2" cy="26.2" r="23.3"/>
		<circle fill="#F7BA31" cx="28.2" cy="26.2" r="17.9"/>
		<ellipse fill="#402F09" cx="18" cy="25.7" rx="1.4" ry="4.3"/>
		<ellipse fill="#402F09" cx="37.5" cy="25.7" rx="1.4" ry="4.3"/>
		<g>
			<path fill="#402F09" d="M22.2,29.7c0,0,0.4,0.8,1.3,1.6c0.2,0.2,0.5,0.4,0.8,0.601c0.3,0.199,0.6,0.301,0.9,0.5
				c0.3,0.101,0.7,0.199,1.1,0.301l0.5,0.1h0.6c0.4,0,0.7,0,1.1-0.1c0.4-0.102,0.7-0.2,1.1-0.301c0.7-0.199,1.3-0.601,1.7-1
				c0.5-0.399,0.8-0.801,1-1c0.2-0.3,0.3-0.5,0.3-0.5V30c0,0.1-0.1,0.2-0.1,0.4c-0.1,0.4-0.4,0.9-0.8,1.4c-0.4,0.5-1,1-1.8,1.4
				c-0.4,0.2-0.8,0.3-1.2,0.399C28.3,33.7,27.8,33.7,27.3,33.7h-0.6L26,33.5c-0.4-0.1-0.8-0.3-1.2-0.4C24,32.7,23.5,32.2,23.1,31.7
				s-0.6-1-0.8-1.4C22.2,29.9,22.2,29.7,22.2,29.7z"/>
		</g>
		<polygon fill="#402F09" points="14.5,11.1 18.1,8.5 17.2,7 14.1,9.5 		"/>
		<polygon fill="#402F09" points="41.2,11.2 37.7,8.6 38.6,7.1 41.6,9.6 		"/>
	</g>
	<g display="inline">
		
			<linearGradient id="SVGID_3_" gradientUnits="userSpaceOnUse" x1="-240.4189" y1="165.0615" x2="-197.627" y2="165.0615" gradientTransform="matrix(1 0 0 -1 264 235)">
			<stop  offset="0" style="stop-color:#000000;stop-opacity:0.16"/>
			<stop  offset="0.0896" style="stop-color:#000000;stop-opacity:0.16"/>
			<stop  offset="1" style="stop-color:#000000;stop-opacity:0.16"/>
		</linearGradient>
		<ellipse fill="url(#SVGID_3_)" cx="44.977" cy="69.938" rx="21.396" ry="4.495"/>
		<g>
			<g>
				<g>
					<path fill="none" stroke="#9BA7B0" stroke-width="1.0258" stroke-linecap="round" stroke-miterlimit="10" d="M21.085,49.814
						c0,0-1.08,5.261-2.021,10.068"/>
					<path fill="#9BA7B0" d="M18.724,59.47c0,0-0.959,0.888-1.156,2.39c-0.176,1.348,0.394,1.86,0.814,1.621
						c0.442-0.252-0.154-1.566,0.322-2.68c0,0-0.234,1.008,0.23,2.127c0.369,0.891,1.065,0.782,1.167,0.491
						c0.22-0.625-0.597-1.161-0.693-2.596c0,0,0.083,0.7,0.724,1.183c0.641,0.482,1.082,0.188,1.106-0.246
						c0.03-0.554-1.229-0.859-1.65-2.242C19.175,58.164,18.866,59.277,18.724,59.47z"/>
				</g>
			</g>
			<g>
				<g>
					<path fill="none" stroke="#9BA7B0" stroke-width="1.0258" stroke-linecap="round" stroke-miterlimit="10" d="M67.594,49.814
						c0,0,1.081,5.261,2.021,10.068"/>
					<path fill="#9BA7B0" d="M69.955,59.47c0,0,0.961,0.888,1.156,2.39c0.177,1.348-0.396,1.86-0.814,1.621
						c-0.441-0.252,0.154-1.566-0.322-2.68c0,0,0.234,1.008-0.229,2.127c-0.368,0.891-1.063,0.782-1.167,0.491
						c-0.221-0.625,0.598-1.161,0.693-2.596c0,0-0.082,0.7-0.725,1.183s-1.082,0.188-1.105-0.246
						c-0.03-0.554,1.229-0.859,1.649-2.242C69.504,58.164,69.813,59.277,69.955,59.47z"/>
				</g>
			</g>
			<g>
				<g>
					<path fill="none" stroke="#9BA7B0" stroke-width="0.8976" stroke-miterlimit="10" d="M38.545,59.997
						c0,0-0.699,4.537-1.646,8.558"/>
					<path fill="#9BA7B0" d="M37.01,67.998c0,0-1.467-0.438-3.129-0.111c-1.664,0.328-2.512,1.998-0.529,2.324
						c1.987,0.327,3.857-0.959,3.988-1.467C37.469,68.234,37.01,67.998,37.01,67.998z"/>
				</g>
				<g>
					<path fill="none" stroke="#9BA7B0" stroke-width="0.8976" stroke-miterlimit="10" d="M49.992,59.997
						c0,0,0.699,4.537,1.646,8.558"/>
					<path fill="#9BA7B0" d="M51.531,67.998c0,0,1.463-0.438,3.128-0.111c1.661,0.328,2.511,1.998,0.526,2.324
						c-1.984,0.327-3.857-0.959-3.987-1.467C51.068,68.234,51.531,67.998,51.531,67.998z"/>
				</g>
			</g>
			<g>
				<path fill="#8E45B7" d="M22.199,34.381c0,7.135-6.272,12.207-2.229,17.449c5.677,7.355,14.582,12.095,24.59,12.095
					c17.144,0,22.465-14.137,22.465-31.278c0-17.143-11.479-20.693-23.078-19.706C34.352,13.756,22.199,17.24,22.199,34.381z"/>
				<path fill="#F453B0" d="M44.268,32.676v31.242c0.099,0.002,0.193,0.007,0.295,0.007c9.869,0,18.656-4.612,24.342-11.794
					L44.268,32.676z"/>
				<path fill="#F42732" d="M68.813,52.249c4.244-5.31,6.789-12.038,6.789-19.365c0-2.472-0.299-4.872-0.844-7.177l-30.49,6.966
					L68.813,52.249z"/>
				<path fill="#FF9500" d="M44.268,32.673l30.537-6.759c-2.15-9.367-8.533-17.115-17.033-21.121L44.268,32.673z"/>
				<path fill="#F9DE41" d="M44.256,32.686L57.904,4.854c-4.041-1.929-8.566-3.01-13.344-3.01c-4.888,0-9.511,1.134-13.623,3.146
					L44.256,32.686z"/>
				<path fill="#20C968" d="M14.271,26.112l29.997,6.574L31.023,4.946C22.626,9.023,16.349,16.774,14.271,26.112z"/>
				<path fill="#1675CF" d="M14.318,25.909c-0.517,2.245-0.796,4.576-0.796,6.975c0,7.242,2.484,13.898,6.641,19.177l24.104-19.388
					L14.318,25.909z"/>
			</g>
			<g id="contento_1_">
				<g>
					<g>
						<path fill="#DBDBDB" stroke="#FFFFFF" stroke-width="1.2305" stroke-linejoin="round" stroke-miterlimit="10" d="
							M50.943,15.007L44.568,7.26l-6.697,7.865c-7.597,2.747-13.028,10.023-13.028,18.564c0,10.9,8.835,19.733,19.733,19.733
							c10.9,0,19.734-8.833,19.734-19.733C64.311,25.02,58.718,17.654,50.943,15.007z"/>
					</g>
					<g>
						
							<ellipse transform="matrix(-0.4026 -0.9154 0.9154 -0.4026 37.0548 58.9947)" fill="#333333" cx="37.778" cy="17.406" rx="0.793" ry="1.829"/>
						
							<ellipse transform="matrix(-0.452 0.892 -0.892 -0.452 90.0922 -20.0635)" fill="#333333" cx="51.209" cy="17.642" rx="0.795" ry="1.829"/>
					</g>
					<path fill="#666666" d="M29.075,28.605c5.366,12.029,25.944,12.083,31.079-0.18C55.99,41.555,33.504,41.482,29.075,28.605z"/>
					<path fill="#666666" d="M27.66,29.69c0,0-0.003-0.081,0.029-0.224c0.035-0.138,0.104-0.339,0.266-0.547
						c0.086-0.099,0.185-0.206,0.319-0.286c1.217-0.805,2.83,0.36,3.542,1.327C30.613,29.431,28.665,28.113,27.66,29.69z"/>
					<path fill="#666666" d="M61.99,29.554c-1.004-1.575-2.952-0.262-4.155,0.272c0.714-0.972,2.323-2.131,3.542-1.329
						c0.134,0.082,0.232,0.188,0.318,0.287c0.162,0.207,0.231,0.41,0.266,0.548C61.993,29.473,61.99,29.554,61.99,29.554z"/>
					<path d="M40.428,31.617c0,0.832-0.674,1.506-1.504,1.506l0,0c-0.833,0-1.506-0.674-1.506-1.506v-6.625
						c0-0.832,0.673-1.505,1.506-1.505l0,0c0.83,0,1.504,0.673,1.504,1.505V31.617z"/>
					<path d="M51.451,31.617c0,0.832-0.676,1.506-1.506,1.506l0,0c-0.832,0-1.506-0.674-1.506-1.506v-6.625
						c0-0.832,0.674-1.505,1.506-1.505l0,0c0.83,0,1.506,0.673,1.506,1.505V31.617z"/>
				</g>
			</g>
		</g>
	</g>
</g>
<g>
	<defs>
		<rect id="SVGID_4_" y="6.702" width="60" height="47.464"/>
	</defs>
	<clipPath id="SVGID_5_">
		<use xlink:href="#SVGID_4_"  overflow="visible"/>
	</clipPath>
	<path clip-path="url(#SVGID_5_)" fill="#91D7FA" d="M46.985,8.051C36.805,5.765,20.25,6.869,12.049,8.774
		c0,0-9.526,9.986-12.049,16.472c2.258,3.705,19.791,22.309,29.835,28.916c6.863-4.51,27.595-23.667,30.166-28.571
		C58.264,19.044,46.985,8.051,46.985,8.051"/>
	<path clip-path="url(#SVGID_5_)" fill="#D2EDFA" d="M21.226,7.412l-5.093,17.219l28.08,0.117L36.504,6.83
		C36.504,6.83,26.804,6.296,21.226,7.412"/>
	<path clip-path="url(#SVGID_5_)" fill="#B2E2FA" d="M16.133,24.631l28.08,0.116c-4.684,12.676-9.313,22.615-14.378,29.415
		C30.061,54.443,18.825,33.594,16.133,24.631"/>
	<path clip-path="url(#SVGID_5_)" fill="#A3E1FF" d="M16.133,24.631c0,0,4.366-13.775,4.842-17.253
		c-3.441,0.355-6.537,0.841-8.925,1.396c0,0-9.527,9.986-12.05,16.472C3.425,25.311,16.133,24.631,16.133,24.631"/>
	<path clip-path="url(#SVGID_5_)" fill="#65C6F5" d="M44.155,24.863c5.918,0.097,14.553,0.518,15.846,0.728
		c-2.058,4.182-20.123,21.964-30.166,28.571C36.164,41.512,44.155,24.863,44.155,24.863"/>
	<path clip-path="url(#SVGID_5_)" fill="#CDEBFA" d="M11.987,9.214c-2.277,2.21-9.02,11.252-11.52,15.896l2.277-0.09
		C6.629,17.117,10.141,12.886,11.987,9.214"/>
</g>
</svg>
