<?xml version="1.0" encoding="utf-8"?>
<!-- Generator: Adobe Illustrator 16.0.0, SVG Export Plug-In . SVG Version: 6.00 Build 0)  -->
<!DOCTYPE svg PUBLIC "-//W3C//DTD SVG 1.1//EN" "http://www.w3.org/Graphics/SVG/1.1/DTD/svg11.dtd">
<svg version="1.1" id="Layer_1" xmlns="http://www.w3.org/2000/svg" xmlns:xlink="http://www.w3.org/1999/xlink" x="0px" y="0px"
	 width="35px" height="35px" viewBox="0 0 35 35" style="enable-background:new 0 0 35 35;" xml:space="preserve">
<g>
	<g>
		<path style="fill:#EB4271;" d="M30.9,5.1c-3.1-2.4-6.5-2.3-8.9-1.3c-3.1,1.2-4.4,3.5-4.5,3.6C17.4,7.3,16.1,5,13,3.8
			c-2.4-0.9-5.8-1.1-8.9,1.3c-3,2.3-4.9,6.9-2.6,11.6c2.6,5.2,8.9,11,15.9,16.1v0c0,0,0,0,0,0s0,0,0,0v0
			c7.1-5.1,13.3-10.9,15.9-16.1C35.8,12,33.8,7.5,30.9,5.1z"/>
		<path style="fill:#FF80A4;" d="M4.2,5.8c2.2-2.1,5-2.3,6.5-1.9c1,0.3,1.7,0.7,2,1.3c0.3,0.6-0.1,1.4-1.3,1.4
			C9.2,6.7,7,7.1,5.3,8.6c-1.9,1.6-3.1,4.3-2.7,8.1C2.6,16.7-0.7,10.4,4.2,5.8z"/>
	</g>
</g>
</svg>
