<?xml version="1.0" encoding="utf-8"?>
<!-- Generator: Adobe Illustrator 16.0.0, SVG Export Plug-In . SVG Version: 6.00 Build 0)  -->
<!DOCTYPE svg PUBLIC "-//W3C//DTD SVG 1.1//EN" "http://www.w3.org/Graphics/SVG/1.1/DTD/svg11.dtd">
<svg version="1.1" id="Layer_1" xmlns="http://www.w3.org/2000/svg" xmlns:xlink="http://www.w3.org/1999/xlink" x="0px" y="0px"
	 width="29px" height="27px" viewBox="0 0 29 27" style="enable-background:new 0 0 29 27;" xml:space="preserve">
<path style="fill:#FFFFFF;" d="M14.7,0C7.2,0,1.2,6,1.2,13.5C1.2,21,7.2,27,14.7,27c7.5,0,13.5-6,13.5-13.5C28.2,6,22.1,0,14.7,0z
	 M13.9,3.8c0.4-0.4,1-0.6,1.6-0.6c0.6,0,1.1,0.2,1.5,0.6c0.4,0.4,0.7,0.9,0.7,1.6c0,0.6-0.2,1.1-0.6,1.6c-0.4,0.4-1,0.7-1.6,0.7
	c-0.6,0-1.1-0.2-1.6-0.7c-0.4-0.4-0.7-1-0.7-1.6C13.2,4.7,13.5,4.2,13.9,3.8z M13.1,23.2c-2,0-2.9-0.7-2.9-2.1
	c0-0.4,0.1-0.9,0.2-1.6l2.1-7.9h-1.9l0.2-1H13c0.7,0,1.4,0,2.2-0.1l1-0.1H17l-2.5,9.8c0,0,0,0.2-0.1,0.4c0,0.2-0.1,0.4-0.1,0.5
	c0,0.3,0.1,0.4,0.4,0.4c0.9,0,1.7-1,2.5-3.1l0.8,0.6C17,21.9,15.4,23.2,13.1,23.2z"/>
</svg>
