<?xml version="1.0" encoding="utf-8"?>
<!-- Generator: Adobe Illustrator 16.0.0, SVG Export Plug-In . SVG Version: 6.00 Build 0)  -->
<!DOCTYPE svg PUBLIC "-//W3C//DTD SVG 1.1//EN" "http://www.w3.org/Graphics/SVG/1.1/DTD/svg11.dtd">
<svg version="1.1" id="Layer_3" xmlns="http://www.w3.org/2000/svg" xmlns:xlink="http://www.w3.org/1999/xlink" x="0px" y="0px"
	 width="17px" height="20px" viewBox="0 0 17 20" enable-background="new 0 0 17 20" xml:space="preserve">
<path fill="#FFFFFF" d="M13.707,15.409c-1.525,0-3.484-0.336-5.661-2.732c-0.224-0.246,1.208-2.097,1.407-1.879
	c2.838,3.122,5.41,2.161,5.436,2.148c0.57-0.262,1.246-0.012,1.508,0.558c0.262,0.57,0.014,1.246-0.559,1.508
	C15.766,15.045,14.945,15.409,13.707,15.409z"/>
<polyline fill="none" stroke="#FFFFFF" stroke-width="2.084" stroke-linecap="round" stroke-linejoin="round" stroke-miterlimit="10" points="
	13.521,11.822 15.875,14.077 13.621,16.431 "/>
<polyline fill="none" stroke="#FFFFFF" stroke-width="2.084" stroke-linecap="round" stroke-linejoin="round" stroke-miterlimit="10" points="
	13.521,3.625 15.875,5.878 13.621,8.232 "/>
<path fill="#FFFFFF" d="M15.801,4.888c-0.197-0.082-4.889-1.942-9.068,4.453C3.981,13.55,1.002,13.509,0,13.352v3.046
	c0.205,0.02,0.435,0.033,0.687,0.033c1.929,0,5.128-1.53,7.948-5.846c3.103-4.746,6.177-3.642,6.292-3.598
	c0.578,0.241,1.244-0.033,1.486-0.613C16.654,5.794,16.381,5.129,15.801,4.888z"/>
<path fill="#FFFFFF" d="M0.027,6.641C0.051,6.633,2.922,6.42,5.656,9.534C5.763,9.656,7.187,7.811,6.97,7.563
	C4.108,4.304,1.259,3.434,0,3.587v3.06C0.009,6.644,0.019,6.644,0.027,6.641z"/>
</svg>
