<?xml version="1.0" encoding="utf-8"?>
<!-- Generator: Adobe Illustrator 16.0.0, SVG Export Plug-In . SVG Version: 6.00 Build 0)  -->
<!DOCTYPE svg PUBLIC "-//W3C//DTD SVG 1.1//EN" "http://www.w3.org/Graphics/SVG/1.1/DTD/svg11.dtd">
<svg version="1.1" id="Layer_1" xmlns="http://www.w3.org/2000/svg" xmlns:xlink="http://www.w3.org/1999/xlink" x="0px" y="0px"
	 width="36px" height="34.438px" viewBox="0 0 36 34.438" enable-background="new 0 0 36 34.438" xml:space="preserve">
<g>
	<path fill="#FFFFFF" d="M20.929,24.393c0-0.638,0.09-1.253,0.238-1.845c-1.076-0.416-2.429-0.789-4.777-1.096
		c-0.034-0.01-0.068-1.77-0.099-1.773c1.33-0.988,1.951-1.441,3.081-4.221c0.013-0.038,0.037-0.083,0.045-0.122
		c0.097,0.011,0.189,0.025,0.287,0.025c0.151,0,0.547-0.028,0.669-0.099c0.528-0.321,0.847-2.062,0.855-2.906
		c0.021-1.067-0.694-1.154-0.841-1.154c-0.037,0-0.051,0.004-0.051,0.004s-0.015-0.004-0.031-0.008c0-0.102,0.006-0.203,0.006-0.304
		c0-1.149,0.609-3.088,0.292-4.166c-0.476-1.637-1.446-2.017-1.976-3.136c-0.949-2.006-2.824-1.979-3.535-1.979
		c-0.375,0-1.509-1.607-3.181-1.426c-1.392,0.155-1.953,2.464-3.553,3.293C6.254,4.558,6.522,5.106,6.053,6.735
		c-0.307,1.052,0.292,2.968,0.292,4.159c0,0.099,0.008,0.202,0.008,0.299c-0.035,0.009-0.059,0.013-0.059,0.013
		s-0.013-0.004-0.04-0.004c-0.153,0-0.733,0.086-0.728,1.154c0.012,0.845,0.332,2.585,0.864,2.906
		c0.118,0.071,0.39,0.099,0.542,0.099c0.101,0,0.205-0.014,0.307-0.034c0.014,0.047,0.035,0.095,0.05,0.136
		c1.144,2.806,1.724,3.246,3.064,4.222c-0.037,0.005-0.075,1.771-0.114,1.772c-3.894,0.539-5.024,1.225-6.729,2.003
		c-0.681,0.134-3.166,1.208-3.486,9.688l26.487-0.002c-0.033-0.516-0.076-1.037-0.129-1.553
		C23.237,30.706,20.929,27.823,20.929,24.393z"/>
	<path fill="#FFFFFF" d="M35.831,32.943l-2.912-4.329c0.896-0.785,1.559-1.84,1.853-3.07c0.367-1.535,0.114-3.119-0.71-4.465
		s-2.125-2.287-3.66-2.655c-0.452-0.106-0.916-0.163-1.379-0.163c-2.74,0-5.1,1.865-5.74,4.533
		c-0.366,1.535-0.113,3.121,0.711,4.465c0.826,1.346,2.125,2.287,3.66,2.654c0.452,0.109,0.916,0.163,1.379,0.163
		c0.877,0,1.713-0.192,2.469-0.54l2.928,4.352c0.161,0.242,0.428,0.375,0.701,0.375c0.163,0,0.326-0.048,0.472-0.145
		C35.989,33.858,36.093,33.331,35.831,32.943z M28.048,28.269c-1.096-0.264-2.023-0.936-2.612-1.895
		c-0.589-0.961-0.769-2.09-0.505-3.186c0.455-1.904,2.138-3.234,4.092-3.234c0.329,0,0.662,0.039,0.984,0.117
		c1.096,0.262,2.021,0.934,2.612,1.893c0.589,0.961,0.769,2.091,0.507,3.187c-0.456,1.903-2.14,3.233-4.094,3.233
		C28.703,28.384,28.37,28.345,28.048,28.269z"/>
</g>
</svg>
