<?xml version="1.0" encoding="utf-8"?>
<!-- Generator: Adobe Illustrator 18.0.0, SVG Export Plug-In . SVG Version: 6.00 Build 0)  -->
<!DOCTYPE svg PUBLIC "-//W3C//DTD SVG 1.1//EN" "http://www.w3.org/Graphics/SVG/1.1/DTD/svg11.dtd">
<svg version="1.1" id="Capa_1" xmlns="http://www.w3.org/2000/svg" xmlns:xlink="http://www.w3.org/1999/xlink" x="0px" y="0px"
	 viewBox="0 0 100 100" enable-background="new 0 0 100 100" xml:space="preserve">
<g>
	<path fill="#854F9F" d="M15.1,52.4c0,11.1-9.8,19-3.5,27.2C20.5,91.1,34.4,98.5,50,98.5c26.7,0,35.1-22.1,35.1-48.8
		c0-26.7-17.9-32.3-36-30.7C34.1,20.2,15.1,25.6,15.1,52.4z"/>
	<path fill="#E65BA1" d="M49.5,49.7v48.7c0.2,0,0.3,0,0.5,0c15.4,0,29.1-7.2,38-18.4L49.5,49.7z"/>
	<path fill="#EE2E35" d="M87.8,80.3C94.5,72,98.4,61.5,98.4,50c0-3.9-0.5-7.6-1.3-11.2L49.5,49.7L87.8,80.3z"/>
	<path fill="#F8951D" d="M49.5,49.7l47.6-10.5c-3.4-14.6-13.3-26.7-26.6-33L49.5,49.7z"/>
	<path fill="#F9DE43" d="M49.5,49.7L70.8,6.3c-6.3-3-13.4-4.7-20.8-4.7c-7.6,0-14.8,1.8-21.3,4.9L49.5,49.7z"/>
	<path fill="#49B868" d="M2.7,39.5l46.8,10.3L28.9,6.4C15.8,12.8,6,24.9,2.7,39.5z"/>
	<path fill="#3374BA" d="M2.8,39.2C2,42.7,1.6,46.3,1.6,50c0,11.3,3.9,21.7,10.4,29.9l37.6-30.3L2.8,39.2z"/>
</g>
<g id="contento">
	<g>
		<g>
			<path fill="#DCDBDB" stroke="#FFFFFF" stroke-width="2.0969" stroke-linejoin="round" stroke-miterlimit="10" d="M58.7,26.7
				L50,16.2l-9.1,10.7c-10.4,3.7-17.8,13.7-17.8,25.3c0,14.9,12,26.9,26.9,26.9c14.9,0,26.9-12,26.9-26.9
				C76.9,40.4,69.3,30.3,58.7,26.7z"/>
		</g>
	</g>
</g>
</svg>
