<?xml version="1.0" encoding="utf-8"?>
<!-- Generator: Adobe Illustrator 16.0.0, SVG Export Plug-In . SVG Version: 6.00 Build 0)  -->
<!DOCTYPE svg PUBLIC "-//W3C//DTD SVG 1.1//EN" "http://www.w3.org/Graphics/SVG/1.1/DTD/svg11.dtd">
<svg version="1.1" id="Layer_1" xmlns="http://www.w3.org/2000/svg" xmlns:xlink="http://www.w3.org/1999/xlink" x="0px" y="0px"
	 width="25px" height="25px" viewBox="0 0 25 25" enable-background="new 0 0 25 25" xml:space="preserve">
<path fill="#BBBBBB" d="M21.632,20.116l0.913-0.947l-1.074-2.195c0,0-0.717,0.666-1.757,1.725c-1.374-1.65-3.116-3.643-4.905-5.65
	c4.352-3.923,8.258-7.574,8.258-7.574l1.136-5.323l-5.243,1.974c0,0-3.217,3.716-6.763,8.017C8.613,6.186,5.474,2.827,5.474,2.827
	L0.152,1.691l1.974,5.242c0,0,3.43,2.97,7.513,6.347c-1.423,1.771-2.788,3.516-3.907,5.031c-0.577-0.537-1.205-1.105-1.865-1.676
	L3,18.956l0.938,0.904l-2.893,3.4l1.623,1.588l3.108-3.217l0.949,0.914l2.195-1.074c0,0-0.667-0.717-1.725-1.758
	c1.474-1.227,3.22-2.746,5.006-4.332c2.133,1.73,4.287,3.434,6.11,4.779c-0.538,0.576-1.106,1.205-1.677,1.865l2.322,0.867
	l0.904-0.939l3.4,2.895l1.586-1.623L21.632,20.116z"/>
<g>
</g>
<g>
</g>
<g>
</g>
<g>
</g>
<g>
</g>
<g>
</g>
</svg>
