<?xml version="1.0" encoding="utf-8"?>
<!-- Generator: Adobe Illustrator 16.0.0, SVG Export Plug-In . SVG Version: 6.00 Build 0)  -->
<!DOCTYPE svg PUBLIC "-//W3C//DTD SVG 1.1//EN" "http://www.w3.org/Graphics/SVG/1.1/DTD/svg11.dtd">
<svg version="1.1" id="Layer_3" xmlns="http://www.w3.org/2000/svg" xmlns:xlink="http://www.w3.org/1999/xlink" x="0px" y="0px"
	 width="17px" height="20px" viewBox="0 0 17 20" enable-background="new 0 0 17 20" xml:space="preserve">
<g>
	<g>
		<g>
			<path fill="#FFFFFF" d="M13.238,2.919L8.937,7.958l1.956,2.249l5.195-4.441l0.779-3.697c0,0-0.004-0.122-0.102-0.094
				C16.67,2.003,13.238,2.919,13.238,2.919z"/>
			<polygon fill="#FFFFFF" points="6.408,10.922 2.788,15.164 3.85,16.225 8.205,12.504 			"/>
		</g>
		<path fill="#FFFFFF" d="M0.945,17.01l1.94-1.914l1.047,1.047l-1.982,1.977c0,0-0.3,0.363-0.727-0.08
			c-0.092-0.096-0.115-0.117-0.221-0.215C0.529,17.381,0.945,17.01,0.945,17.01z"/>
	</g>
	<g>
		<path fill="#FFFFFF" d="M0.912,5.563L13.15,16.021l1.061-1.061L3.76,2.715c0,0-3.335-0.899-3.472-0.929
			C0.15,1.756,0.133,1.87,0.133,1.87L0.912,5.563z"/>
		<path fill="#FFFFFF" d="M11.736,16.35l1.207,0.736c0,0,0.174,0.084,0.305-0.053c0.461-0.479,1.914-1.91,1.992-1.99
			c0.09-0.096-0.004-0.258-0.004-0.258l-0.748-1.23c0,0-0.1-0.113-0.205-0.002c-0.088,0.092-1.979,1.984-2.541,2.539
			C11.586,16.246,11.736,16.35,11.736,16.35z"/>
		<path fill="#FFFFFF" d="M5.243,16.533l-1.208,0.734c0,0-0.172,0.084-0.304-0.051c-0.462-0.48-1.915-1.91-1.991-1.99
			c-0.092-0.098,0.003-0.26,0.003-0.26l0.747-1.23c0,0,0.102-0.111,0.205-0.002c0.09,0.094,1.98,1.984,2.542,2.539
			C5.395,16.428,5.243,16.533,5.243,16.533z"/>
		<path fill="#FFFFFF" d="M14.961,17.824l-1.914-1.939l1.047-1.047l1.977,1.982c0,0,0.363,0.301-0.082,0.727
			c-0.094,0.092-0.115,0.115-0.213,0.221C15.33,18.24,14.961,17.824,14.961,17.824z"/>
	</g>
</g>
</svg>
